<svg width="157" height="157" viewBox="0 0 157 157" fill="none" xmlns="http://www.w3.org/2000/svg">
<rect x="19.2275" width="138.155" height="138.155" rx="69.0776" transform="rotate(8 19.2275 0)" fill="#1D1D1D"/>
<g clip-path="url(#clip0_2185_121)">
<path d="M92.267 42.8181L90.9852 51.9388L81.8644 50.657L83.1463 41.5363M83.2942 106.663L82.0123 115.784L72.8916 114.502L74.1734 105.381M74.0256 40.2545L63.7709 113.22L54.6502 111.938L64.9048 38.9726M101.536 109.227L46.8113 101.536L48.0931 92.4151L93.6967 98.8242L96.2604 80.5828L68.8982 76.7373L70.1801 67.6166L97.5422 71.4621L98.824 62.3414L53.2205 55.9322L54.5023 46.8115L109.227 54.5025" fill="#99D900"/>
</g>
<defs>
<clipPath id="clip0_2185_121">
<rect width="73.6828" height="73.6828" fill="white" transform="translate(55.7841 37.6908) rotate(8)"/>
</clipPath>
</defs>
</svg>
