<svg width="198" height="198" viewBox="0 0 198 198" fill="none" xmlns="http://www.w3.org/2000/svg">
<path d="M190.417 16.2917V148.958H182.125V157.25H107.5V165.542H90.9167V173.833H82.625V182.125H74.3333V190.417H66.0417V157.25H16.2917V148.958H8V16.2917H16.2917V8H182.125V16.2917H190.417Z" fill="#99D900"/>
<path d="M40.4404 94.9263H35.0214V64.3025H40.4404V94.9263ZM22.167 78.2912L37.7309 93.8551L53.2948 78.2912V85.8526L37.7309 101.417L22.167 85.8526V78.2912ZM83.4903 104.63C80.3397 104.63 77.4201 104.063 74.7316 102.929C72.0431 101.753 69.6907 100.135 67.6743 98.0769C65.6999 96.0185 64.1667 93.6241 63.0744 90.8935C61.9822 88.163 61.4361 85.2435 61.4361 82.1349C61.4361 78.9843 61.9822 76.0438 63.0744 73.3132C64.1667 70.5827 65.6999 68.2093 67.6743 66.1929C69.6907 64.1345 72.0221 62.5382 74.6686 61.404C77.3571 60.2278 80.2767 59.6397 83.4273 59.6397C86.8719 59.6397 89.8965 60.2278 92.501 61.404C95.1055 62.5802 97.4159 64.1765 99.4323 66.1929L95.3365 70.2887C93.9502 68.7344 92.2489 67.5161 90.2325 66.634C88.2582 65.7518 85.9897 65.3107 83.4273 65.3107C81.1168 65.3107 78.9954 65.7308 77.0631 66.571C75.1307 67.3691 73.4504 68.5243 72.0221 70.0366C70.5939 71.5489 69.4806 73.3342 68.6825 75.3926C67.9264 77.451 67.5483 79.6984 67.5483 82.1349C67.5483 84.5714 67.9264 86.8188 68.6825 88.8772C69.4806 90.9355 70.5939 92.7209 72.0221 94.2332C73.4504 95.7455 75.1307 96.9217 77.0631 97.7618C78.9954 98.56 81.1168 98.9591 83.4273 98.9591C86.1578 98.9591 88.5312 98.518 90.5476 97.6358C92.564 96.7116 94.2653 95.4724 95.6516 93.9181L99.7473 97.9509C97.731 100.051 95.3575 101.69 92.627 102.866C89.9385 104.042 86.8929 104.63 83.4903 104.63ZM110.993 86.9868V81.8198H122.903C124.541 81.8198 125.99 81.4838 127.251 80.8116C128.553 80.1395 129.561 79.1943 130.275 77.9761C131.031 76.7579 131.409 75.3086 131.409 73.6283C131.409 71.948 131.031 70.4987 130.275 69.2805C129.561 68.0623 128.553 67.1171 127.251 66.4449C125.99 65.7728 124.541 65.4368 122.903 65.4368H110.993V60.2698H123.281C125.969 60.2698 128.364 60.8159 130.464 61.9081C132.607 63.0003 134.287 64.5546 135.505 66.571C136.765 68.5453 137.395 70.8978 137.395 73.6283C137.395 76.3168 136.765 78.6692 135.505 80.6856C134.287 82.66 132.607 84.2143 130.464 85.3485C128.364 86.4407 125.969 86.9868 123.281 86.9868H110.993ZM107.024 104V60.2698H112.947V104H107.024ZM137.839 104L155.734 60.2698H160.019L177.851 104H171.424L156.743 67.0121H158.948L144.14 104H137.839ZM146.346 94.1071V88.9402H169.345V94.1071H146.346Z" fill="#ECECEC"/>
</svg>
