<svg width="136" height="136" viewBox="0 0 136 136" fill="none" xmlns="http://www.w3.org/2000/svg">
<rect y="27.1179" width="112.094" height="112.094" rx="56.0468" transform="rotate(-14 0 27.1179)" fill="#99D900"/>
<g clip-path="url(#clip0_2185_112)">
<path d="M47.0923 76.9904L45.2844 69.7395L48.9099 68.8356L47.102 61.5846L50.7275 60.6807L48.9196 53.4298L52.5451 52.5259L50.7372 45.2749L54.3627 44.371L52.5548 37.1201L56.1803 36.2161L54.3724 28.9652L61.6234 27.1573L63.4312 34.4083L67.0567 33.5043L68.8646 40.7553L72.49 39.8513L74.2979 47.1023L77.9234 46.1983L79.7312 53.4493L83.3567 52.5453L85.1645 59.7963L88.79 58.8923L90.5979 66.1433L83.3469 67.9511L84.2509 71.5766L76.9999 73.3845L77.9039 77.0099L74.2784 77.9139L75.1823 81.5393L67.9314 83.3472L67.0275 79.7217L63.402 80.6257L62.4981 77.0002L55.2471 78.808L54.3432 75.1826L47.0923 76.9904Z" fill="#111111"/>
<path d="M95.1274 68.8647L96.0313 72.4902L92.4058 73.3941L93.3098 77.0196L89.6843 77.9235L90.5882 81.549L86.9628 82.4529L88.7706 89.7039L85.1452 90.6078L86.0491 94.2333L82.4236 95.1372L83.3276 98.7627L79.7021 99.6666L81.5099 106.918L74.259 108.725L72.4512 101.474L68.8257 102.378L67.9218 98.7529L64.2963 99.6568L63.3924 96.0314L59.7669 96.9353L57.959 89.6844L54.3336 90.5883L53.4296 86.9628L49.8042 87.8668L48.9002 84.2413L45.2748 85.1452L44.3708 81.5198L51.6218 79.7119L52.5257 83.3374L59.7766 81.5295L60.6806 85.155L64.306 84.251L65.21 87.8765L79.7118 84.2608L78.8079 80.6353L82.4334 79.7314L81.5294 76.1059L88.7804 74.2981L87.8764 70.6726L95.1274 68.8647Z" fill="#111111"/>
</g>
<defs>
<clipPath id="clip0_2185_112">
<rect width="89.6749" height="89.6749" fill="white" transform="translate(13.5881 35.2825) rotate(-14)"/>
</clipPath>
</defs>
</svg>
