<svg width="198" height="198" viewBox="0 0 198 198" fill="none" xmlns="http://www.w3.org/2000/svg">
<path d="M190.417 16.2917V148.958H182.125V157.25H107.5V165.542H90.9167V173.833H82.625V182.125H74.3333V190.417H66.0417V157.25H16.2917V148.958H8V16.2917H16.2917V8H182.125V16.2917H190.417Z" fill="#ECECEC"/>
<path d="M96.1394 130.277C95.2181 124.832 92.7891 118.969 88.8524 112.688C84.9158 106.322 79.304 100.417 72.0171 94.9727C64.8139 89.5285 57.6107 86.0525 50.4075 84.5449V79.2681C57.5269 77.5929 64.3532 74.4939 70.8863 69.971C77.5032 65.3643 83.0313 59.8362 87.4704 53.3869C91.9934 46.77 94.883 40.2368 96.1394 33.7875H101.416C102.17 37.9754 103.678 42.2889 105.939 46.7281C108.201 51.0835 111.09 55.2714 114.608 59.2918C118.21 63.2284 122.23 66.7881 126.669 69.971C133.286 74.6614 140.029 77.7605 146.897 79.2681V84.5449C142.29 85.4662 137.516 87.3508 132.574 90.1985C127.716 93.0463 123.193 96.4385 119.005 100.375C114.817 104.228 111.383 108.29 108.703 112.562C104.766 118.844 102.337 124.749 101.416 130.277H96.1394Z" fill="#99D900"/>
</svg>
