<svg width="198" height="198" viewBox="0 0 198 198" fill="none" xmlns="http://www.w3.org/2000/svg">
<path d="M190.417 16.2917V148.958H182.125V157.25H107.5V165.542H90.9167V173.833H82.625V182.125H74.3333V190.417H66.0417V157.25H16.2917V148.958H8V16.2917H16.2917V8H182.125V16.2917H190.417Z" fill="#1D1D1D"/>
<path d="M32.717 84.478V79.375H59.429V84.478H32.717ZM43.49 67.909H48.719V95.944H43.49V67.909ZM72.2805 83.974V78.997H84.1245C86.6865 78.997 88.6605 78.346 90.0465 77.044C91.4325 75.742 92.1255 73.978 92.1255 71.752C92.1255 69.652 91.4325 67.909 90.0465 66.523C88.7025 65.137 86.7495 64.444 84.1875 64.444H72.2805V59.278H84.3765C87.1485 59.278 89.5635 59.824 91.6215 60.916C93.6795 61.966 95.2545 63.415 96.3465 65.263C97.4805 67.111 98.0475 69.232 98.0475 71.626C98.0475 74.104 97.4805 76.267 96.3465 78.115C95.2545 79.963 93.6795 81.412 91.6215 82.462C89.5635 83.47 87.1485 83.974 84.3765 83.974H72.2805ZM68.3115 103V59.278H74.2335V103H68.3115ZM93.5115 103L77.6355 83.407L83.2425 81.454L101.009 103H93.5115ZM126.364 103.63C123.256 103.63 120.358 103.063 117.67 101.929C114.982 100.753 112.63 99.136 110.614 97.078C108.598 94.978 107.023 92.563 105.889 89.833C104.797 87.103 104.251 84.184 104.251 81.076C104.251 77.926 104.797 75.007 105.889 72.319C107.023 69.589 108.577 67.195 110.551 65.137C112.567 63.079 114.898 61.483 117.544 60.349C120.232 59.215 123.13 58.648 126.238 58.648C129.346 58.648 132.223 59.215 134.869 60.349C137.557 61.483 139.909 63.079 141.925 65.137C143.941 67.195 145.516 69.589 146.65 72.319C147.784 75.049 148.351 77.989 148.351 81.139C148.351 84.247 147.784 87.166 146.65 89.896C145.516 92.626 143.941 95.02 141.925 97.078C139.951 99.136 137.62 100.753 134.932 101.929C132.286 103.063 129.43 103.63 126.364 103.63ZM126.238 97.96C129.388 97.96 132.139 97.246 134.491 95.818C136.885 94.348 138.775 92.353 140.161 89.833C141.547 87.271 142.24 84.352 142.24 81.076C142.24 78.64 141.841 76.414 141.043 74.398C140.245 72.34 139.132 70.555 137.704 69.043C136.276 67.531 134.596 66.376 132.664 65.578C130.732 64.738 128.59 64.318 126.238 64.318C123.13 64.318 120.379 65.032 117.985 66.46C115.633 67.888 113.764 69.862 112.378 72.382C111.034 74.902 110.362 77.8 110.362 81.076C110.362 83.512 110.74 85.78 111.496 87.88C112.294 89.938 113.386 91.723 114.772 93.235C116.2 94.705 117.88 95.86 119.812 96.7C121.786 97.54 123.928 97.96 126.238 97.96ZM156.475 103V59.278H162.397V103H156.475Z" fill="#EC6519"/>
</svg>
