<svg width="152" height="152" viewBox="0 0 152 152" fill="none" xmlns="http://www.w3.org/2000/svg">
<rect x="14.4412" width="138.155" height="138.155" rx="69.0776" transform="rotate(6 14.4412 0)" fill="#1D1D1D"/>
<g clipPath="url(#clip0_2271_108)">
<path d="M46.0297 112.98L72.2187 115.732L72.9069 109.185L79.4542 109.873L80.1423 103.326L86.6896 104.014L90.1303 71.2776L96.6776 71.9658L95.9894 78.5131L109.084 79.8893L110.46 66.7948L97.3657 65.4185L98.0539 58.8712L91.5066 58.1831L92.8829 45.0886L79.7883 43.7123L73.595 102.638L53.9532 100.573L56.0177 80.9315L69.1122 82.3077L70.4885 69.2132L57.394 67.8369L56.7058 74.3842L50.1585 73.696L49.4704 80.2433L42.9231 79.5552L40.1705 105.744L46.7178 106.432L46.0297 112.98Z" fill="#99D900"/>
</g>
<defs>
<clipPath id="clip0_2271_108">
<rect width="79" height="79" fill="white" transform="translate(41.1929 33.0361) rotate(6)"/>
</clipPath>
</defs>
</svg>
