<svg width="145" height="145" viewBox="0 0 145 145" fill="none" xmlns="http://www.w3.org/2000/svg">
<rect x="9.41557" width="134.978" height="134.978" rx="67.4889" transform="rotate(4 9.41557 0)" fill="white"/>
<g clipPath="url(#clip0_2185_117)">
<path d="M54.264 37.0867L54.0344 40.3703L50.7508 40.1407L50.5212 43.4244L47.2375 43.1947L47.0079 46.4784L43.7242 46.2488L43.4946 49.5324L40.211 49.3028L36.9964 95.2739L53.4146 96.422L52.4962 109.557L55.7798 109.786L56.0094 106.503L59.2931 106.732L59.5227 103.448L62.8063 103.678L63.0359 100.394L66.3196 100.624L66.5492 97.3404L79.6838 98.2589L79.9134 94.9752L83.1971 95.2048L83.4267 91.9212L86.7103 92.1508L86.9399 88.8672L90.2236 89.0968L90.4532 85.8131L93.7369 86.0427L93.9665 82.7591L97.2501 82.9887L97.4797 79.7051L100.763 79.9347L100.993 76.651L104.277 76.8806L106.802 40.7605L54.264 37.0867ZM97.7093 76.4214L94.4257 76.1918L94.1961 79.4754L90.9124 79.2458L90.6828 82.5295L74.2646 81.3814L74.035 84.6651L70.7513 84.4354L70.5217 87.7191L67.2381 87.4895L67.0084 90.7731L63.7248 90.5435L64.4136 80.6926L54.5627 80.0037L57.0885 43.8836L99.7759 46.8686L97.7093 76.4214Z" fill="#99D900"/>
<path d="M86.1822 52.5173L92.7495 52.9766L91.6014 69.3948L85.0341 68.9356L86.1822 52.5173ZM69.764 51.3693L76.3313 51.8285L75.1832 68.2467L68.6159 67.7875L69.764 51.3693Z" fill="#99D900"/>
</g>
<defs>
<clipPath id="clip0_2185_117">
<rect width="79" height="79" fill="white" transform="translate(34.7918 32.4253) rotate(4)"/>
</clipPath>
</defs>
</svg>
