<svg width="124" height="124" viewBox="0 0 124 124" fill="none" xmlns="http://www.w3.org/2000/svg">
<rect y="11.717" width="112.094" height="112.094" rx="56.0468" transform="rotate(-6 0 11.717)" fill="#99D900"/>
<path d="M89.7146 44.12L89.1005 38.2771L83.2238 38.8948L82.9167 35.9734L35.903 40.9147L36.21 43.8362L30.3333 44.4538L30.9474 50.2966L28.009 50.6055L31.0796 79.8196L34.0179 79.5107L34.632 85.3535L40.5088 84.7359L40.8158 87.6573L87.8296 82.7159L87.5225 79.7945L93.3992 79.1769L92.7851 73.334L95.7235 73.0252L92.653 43.8111L89.7146 44.12ZM62.7874 70.5796L56.9107 71.1972L55.0684 53.6688L60.9451 53.0511L61.2522 55.9725L67.1289 55.3548L67.4359 58.2763L73.3127 57.6586L73.9268 63.5014L68.05 64.1191L68.3571 67.0405L62.4804 67.6582L62.7874 70.5796Z" fill="#1D1D1D"/>
</svg>
