<svg width="72" height="72" viewBox="0 0 72 72" fill="none" xmlns="http://www.w3.org/2000/svg">
<rect width="72" height="72" rx="36" fill="#ECECEC"/>
<mask id="mask0_183_51" style="mask-type:alpha" maskUnits="userSpaceOnUse" x="0" y="0" width="72" height="72">
<rect width="72" height="72" rx="36" fill="white"/>
</mask>
<g mask="url(#mask0_183_51)">
<path d="M25.8658 39.9561C22.9745 37.0648 21.5288 33.589 21.5288 29.5288C21.5288 25.4686 22.9745 21.9928 25.8658 19.1014C28.7572 16.2101 32.233 14.7644 36.2932 14.7644C40.3534 14.7644 43.8292 16.2101 46.7205 19.1014C49.6119 21.9928 51.0576 25.4686 51.0576 29.5288C51.0576 33.589 49.6119 37.0648 46.7205 39.9561C43.8292 42.8475 40.3534 44.2932 36.2932 44.2932C32.233 44.2932 28.7572 42.8475 25.8658 39.9561ZM6.7644 73.822V63.4869C6.7644 61.3953 7.30331 59.4734 8.38111 57.7214C9.45891 55.9694 10.8886 54.6307 12.6702 53.7055C16.4843 51.7984 20.3599 50.3687 24.2971 49.4164C28.2343 48.4641 32.233 47.9867 36.2932 47.9843C40.3534 47.9818 44.3521 48.4592 48.2892 49.4164C52.2264 50.3736 56.1021 51.8033 59.9162 53.7055C61.7002 54.6283 63.1311 55.9669 64.209 57.7214C65.2868 59.4759 65.8244 61.3977 65.822 63.4869V73.822H6.7644Z" fill="#1D1D1D"/>
</g>
</svg>
