<svg width="139" height="139" viewBox="0 0 139 139" fill="none" xmlns="http://www.w3.org/2000/svg">
<rect width="138.155" height="138.155" rx="69.0776" fill="#ECECEC"/>
<path d="M29.0583 69.0585V64.9474H25.0583V56.7252H29.0583V52.6141H49.0583V64.9474H53.0583V69.0585H29.0583ZM41.0583 44.3918H37.0583V36.1696H41.0583V32.0585H49.0583V36.1696H53.0583V40.2807H49.0583V48.5029H41.0583V44.3918ZM53.0583 44.3918H57.0583V40.2807H61.0583V36.1696H77.0583V40.2807H81.0583V44.3918H85.0583V60.8363H81.0583V64.9474H77.0583V69.0585H61.0583V64.9474H57.0583V60.8363H53.0583V44.3918ZM97.0583 89.6141H101.058V101.947H97.0583V106.059H41.0583V101.947H37.0583V89.6141H41.0583V85.5029H45.0583V81.3918H53.0583V77.2807H85.0583V81.3918H93.0583V85.5029H97.0583V89.6141ZM113.058 56.7252V64.9474H109.058V69.0585H85.0583V64.9474H89.0583V52.6141H109.058V56.7252H113.058ZM89.0583 40.2807H85.0583V36.1696H89.0583V32.0585H97.0583V36.1696H101.058V44.3918H97.0583V48.5029H89.0583V40.2807Z" fill="#1D1D1D"/>
</svg>
