<svg width="139" height="139" viewBox="0 0 139 139" fill="none" xmlns="http://www.w3.org/2000/svg">
<rect width="138.155" height="138.155" rx="69.0776" fill="#99D900"/>
<path d="M40.9 72.3636H68.5V92.5455H75.4V99.2727H68.5V106H61.6V79.0909H34V65.6364H40.9V72.3636ZM82.3 92.5455H75.4V85.8182H82.3V92.5455ZM89.2 85.8182H82.3V79.0909H89.2V85.8182ZM96.1 79.0909H89.2V72.3636H96.1V79.0909ZM75.4 58.9091H103V72.3636H96.1V65.6364H68.5V45.4545H61.6V38.7273H68.5V32H75.4V58.9091ZM47.8 65.6364H40.9V58.9091H47.8V65.6364ZM54.7 58.9091H47.8V52.1818H54.7V58.9091ZM61.6 52.1818H54.7V45.4545H61.6V52.1818Z" fill="white"/>
</svg>
