<svg width="880" height="199" viewBox="0 0 880 199" fill="none" xmlns="http://www.w3.org/2000/svg">
<path fill-rule="evenodd" clip-rule="evenodd" d="M10.0125 0.830812C6.14448 1.74681 2.44548 4.93381 0.891479 8.69081C0.115479 10.5638 -0.127515 37.6528 0.060485 101.027L0.327483 190.711L3.24248 193.753C8.33048 199.064 9.26449 199.146 57.7315 198.548C106.145 197.95 108.145 197.75 126.327 191.706C141.152 186.778 152.05 180.464 162.2 170.923C168.176 165.305 177.969 150.752 180.718 143.403C192.909 110.82 190.455 69.4918 174.823 44.1178C158.7 17.9468 130.414 3.09681 92.3275 0.808812C74.1825 -0.281188 14.6445 -0.265188 10.0125 0.830812ZM302.545 8.87882C290.473 11.8948 284.038 19.3438 283.068 31.4248C282.06 43.9918 288.6 54.2668 299.654 57.4798C310.003 60.4888 322.282 58.2208 329.577 51.9538C331.647 50.1758 331.827 49.1738 331.827 39.4318V28.8418H320.327H308.827V34.3418V39.8418H312.397C315.512 39.8418 315.925 40.1238 315.647 42.0588C315.207 45.1048 310.008 46.5738 305.813 44.8358C301.813 43.1788 299.827 39.1908 299.827 32.8148C299.827 28.4818 300.28 27.2358 302.75 24.7648C306.283 21.2328 311.776 20.8328 316.252 23.7828C319.5 25.9248 319.657 25.8658 326.26 20.0468C330.696 16.1378 330.277 15.1778 322.474 11.3878C316.637 8.55281 308.135 7.48282 302.545 8.87882ZM210.827 33.2308V57.8418L224.577 57.7978C239.373 57.7508 243.48 56.8688 249.188 52.5158C253.897 48.9238 256.172 43.6288 256.64 35.1748C257.111 26.6708 255.773 21.9888 251.471 17.0888C246.07 10.9378 241.337 9.49181 225.077 9.02681L210.827 8.61981V33.2308ZM261.827 33.3418V57.8418H269.827H277.827V33.3418V8.84181H269.827H261.827V33.3418ZM337.827 33.3418V57.8418H345.827H353.827V33.3418V8.84181H345.827H337.827V33.3418ZM360.827 33.3208V58.0208L376.077 57.6818C390.688 57.3558 391.527 57.2238 396.099 54.5368C403.29 50.3098 406.22 45.1888 406.682 36.0418C407.139 26.9868 405.779 21.9938 401.533 17.1588C396.068 10.9348 391.377 9.49281 375.077 9.02681L360.827 8.61981V33.3208ZM414.989 32.5918C410.486 45.6548 406.808 56.6798 406.815 57.0918C406.821 57.5038 410.421 57.8418 414.814 57.8418H422.801L424.263 54.3418C425.707 50.8838 425.798 50.8418 431.827 50.8418C437.856 50.8418 437.948 50.8838 439.392 54.3418L440.854 57.8418H449.34C454.008 57.8418 457.827 57.5598 457.827 57.2158C457.827 56.3978 444.005 16.3118 442.267 12.0918L440.929 8.84181H432.053H423.177L414.989 32.5918ZM449.827 9.37782C449.827 9.67282 453.652 16.6058 458.327 24.7848L466.827 39.6548V48.7478V57.8418H474.827H482.827V48.3178V38.7938L490.177 26.0678C494.219 19.0688 498.06 12.3288 498.712 11.0918L499.897 8.84181H490.827H481.757L479.71 13.5918C478.585 16.2038 476.996 19.9168 476.179 21.8418L474.694 25.3418L471.091 17.0918L467.488 8.84181H458.658C453.802 8.84181 449.827 9.08282 449.827 9.37782ZM14.8955 15.2598C13.0825 17.4448 13.2035 182.812 15.0195 184.029C15.7415 184.513 35.3715 184.731 58.8275 184.515C97.5135 184.16 102.09 183.94 109.827 182.065C153.985 171.363 174.299 145.092 174.178 98.8418C174.122 77.4988 170.27 62.5018 161.393 49.0668C151.117 33.5148 136.563 23.9838 113.827 17.9158C101.159 14.5348 90.7695 13.8418 52.7265 13.8418C22.3095 13.8418 15.8725 14.0828 14.8955 15.2598ZM226.827 33.3728C226.827 45.2908 227.248 45.9308 233.791 43.9708C238.742 42.4878 241.354 37.5368 240.384 31.4758C239.443 25.5878 236.507 22.8418 231.153 22.8418H226.827V33.3728ZM376.827 33.3728C376.827 45.3438 377.229 45.9368 383.98 43.9138C388.83 42.4608 391.34 37.7028 390.512 31.5288C389.752 25.8628 386.497 22.8418 381.153 22.8418H376.827V33.3728ZM430.5 30.7248C430.183 32.3108 429.628 34.7858 429.267 36.2248C428.664 38.6268 428.866 38.8418 431.72 38.8418C435.226 38.8418 435.293 38.6108 433.621 32.3558C432.224 27.1348 431.314 26.6588 430.5 30.7248ZM75.8275 47.8418C74.0345 49.6348 73.8275 51.1748 73.8275 62.7238V75.6048L65.0775 76.3128C55.3865 77.0958 43.7435 79.2818 40.7615 80.8768C39.1555 81.7368 38.8275 83.0088 38.8275 88.3768C38.8275 93.1138 39.1855 94.8418 40.1675 94.8418C40.9045 94.8418 45.0675 93.8998 49.4175 92.7488C55.2995 91.1928 60.7475 90.6138 70.6665 90.4878C86.8145 90.2838 86.8275 90.2738 86.8275 78.7098C86.8275 74.4468 87.1725 70.7468 87.5935 70.4868C88.3285 70.0318 115.943 95.3368 116.693 97.1538C117.129 98.2068 89.3525 125.842 87.8575 125.842C87.2335 125.842 86.8275 122.557 86.8275 117.497C86.8275 106 85.9785 105.268 72.9605 105.552C61.9475 105.792 51.7575 107.309 44.4055 109.803L39.3275 111.526L39.0335 118.684C38.8725 122.621 39.1535 125.842 39.6575 125.842C40.1625 125.842 42.5455 125.142 44.9515 124.286C51.1205 122.094 61.3615 120.046 67.8275 119.713L73.3275 119.429L73.8275 133.85C74.3265 148.234 74.3345 148.274 77.0095 149.773C78.9765 150.876 80.3615 151.018 82.2055 150.309C84.8775 149.281 131.485 104.012 133.542 100.447C134.21 99.2888 134.772 97.5768 134.792 96.6428C134.824 95.0698 123.179 83.2698 106.327 67.7998C102.477 64.2658 95.6695 57.8788 91.1995 53.6078C82.4185 45.2178 79.5335 44.1358 75.8275 47.8418ZM224.731 79.2158C219.548 80.6128 215.62 83.3778 212.161 88.0668C205.748 96.7588 206.675 111.597 214.139 119.724C217.777 123.686 225.64 126.821 231.963 126.832C240.346 126.847 252.415 120.156 247.446 118.249C246.594 117.923 244.498 118.652 242.788 119.87C240.683 121.368 237.665 122.246 233.45 122.584C222.774 123.441 215.082 117.81 212.761 107.439C209.742 93.9458 218.596 81.9308 231.609 81.8638C236.11 81.8408 242.125 83.8958 244.897 86.4048C246.323 87.6958 246.698 87.7028 247.733 86.4558C250.106 83.5958 238.893 77.7708 231.327 77.9338C230.227 77.9578 227.259 78.5338 224.731 79.2158ZM269.648 79.1888C259.086 82.1418 252.855 90.8838 252.837 102.776C252.814 117.784 264.274 128.108 279.24 126.563C287.974 125.662 294.574 121.04 298.376 113.162C300.874 107.988 300.89 96.6548 298.405 91.8418C292.832 81.0438 281.245 75.9458 269.648 79.1888ZM852.519 79.2698C847.044 80.7418 841.733 85.3198 838.514 91.3418C835.448 97.0758 835.557 107.59 838.749 114.182C841.416 119.69 847.073 124.29 853.231 125.956C858.539 127.393 868.478 126.582 872.872 124.353C879.52 120.981 879.827 120.378 879.827 110.687V101.842H870.254C861.676 101.842 860.715 102.024 861.014 103.592C861.289 105.033 862.627 105.394 868.588 105.636L875.827 105.93V111.731C875.827 118.18 874.742 119.748 868.928 121.7C861.643 124.147 851.404 122.482 846.507 118.054C839.285 111.523 838.301 97.1538 844.516 89.0048C850.999 80.5058 865.558 79.5438 873.584 87.0828C875.678 89.0508 876.002 89.0958 877.468 87.6288C878.935 86.1628 878.721 85.7778 874.897 83.0078C871.093 80.2518 863.276 77.7408 859.028 77.9088C858.092 77.9468 855.163 78.5588 852.519 79.2698ZM309.827 102.342C309.827 125.092 309.89 125.842 311.806 125.842C313.702 125.842 313.796 125.014 314.056 106.133L314.327 86.4238L318.327 91.5018C320.527 94.2938 327.277 103.153 333.327 111.188C341.774 122.407 344.853 125.803 346.595 125.82L348.864 125.842L348.595 102.592C348.336 80.0978 348.262 79.3418 346.327 79.3418C344.414 79.3418 344.305 80.1748 343.827 98.4948L343.327 117.648L328.467 98.2448C318.419 85.1228 312.996 78.8418 311.717 78.8418C309.917 78.8418 309.827 79.9618 309.827 102.342ZM355.327 79.8418C354.033 81.9358 356.165 82.8418 362.386 82.8418H368.827V104.342C368.827 125.175 368.889 125.842 370.827 125.842C372.765 125.842 372.827 125.175 372.827 104.342V82.8418H379.827C386.16 82.8418 386.827 82.6518 386.827 80.8418C386.827 78.9278 386.161 78.8418 371.387 78.8418C362.172 78.8418 355.696 79.2448 355.327 79.8418ZM393.827 102.342V125.842H406.827C417.583 125.842 419.827 125.589 419.827 124.376C419.827 123.196 417.727 122.854 409.077 122.626L398.327 122.342L398.041 112.592L397.755 102.842H408.364C417.929 102.842 418.941 102.67 418.639 101.092C418.35 99.5838 416.887 99.3028 408.065 99.0568L397.827 98.7718V90.8068V82.8418H408.827C419.16 82.8418 419.827 82.7208 419.827 80.8418C419.827 78.9448 419.16 78.8418 406.827 78.8418H393.827V102.342ZM429.827 102.342C429.827 125.093 429.89 125.842 431.806 125.842C433.704 125.842 433.797 125.015 434.056 105.87L434.327 85.8988L449.332 105.62C459.895 119.506 465 125.437 466.582 125.662L468.827 125.981V102.412C468.827 79.5088 468.77 78.8418 466.827 78.8418C464.895 78.8418 464.827 79.5088 464.827 98.3418C464.827 109.067 464.49 117.818 464.077 117.788C463.664 117.758 456.675 108.983 448.544 98.2878C438.159 84.6258 433.176 78.8418 431.794 78.8418C429.894 78.8418 429.827 79.6388 429.827 102.342ZM475.327 79.8418C474.012 81.9698 476.211 82.8418 482.887 82.8418H489.827V104.342C489.827 122.658 490.046 125.842 491.307 125.842C492.559 125.842 492.829 122.566 493.057 104.592L493.327 83.3418L500.077 83.0458C506.007 82.7868 506.827 82.5128 506.827 80.7958C506.827 78.9418 506.041 78.8418 491.387 78.8418C482.172 78.8418 475.696 79.2448 475.327 79.8418ZM530.496 84.0918C530.163 86.9788 529.201 96.3168 528.358 104.842C527.514 113.367 526.611 121.58 526.351 123.092C525.968 125.316 526.251 125.842 527.833 125.842C530.223 125.842 530.438 124.923 531.816 108.842C533.24 92.2148 533.93 87.5258 534.808 88.5168C535.21 88.9708 539.048 97.7998 543.337 108.138C547.626 118.475 551.449 126.575 551.831 126.138C552.213 125.7 553.239 123.542 554.109 121.342C554.98 119.142 558.614 110.407 562.184 101.931C568.155 87.7558 568.72 86.7928 569.231 89.9308C569.735 93.0258 572.834 123.31 572.829 125.092C572.828 125.504 573.778 125.842 574.941 125.842C576.852 125.842 576.998 125.436 576.469 121.592C576.147 119.254 575.184 109.692 574.329 100.342C572.415 79.4108 572.296 78.8418 569.834 78.8418C567.454 78.8418 566.873 79.9768 558.815 100.342C555.333 109.142 552.168 116.713 551.781 117.167C551.394 117.62 547.563 109.183 543.268 98.4168C536.465 81.3668 535.177 78.8418 533.28 78.8418C531.397 78.8418 531.02 79.5508 530.496 84.0918ZM596.481 89.5918C593.978 95.5038 589.467 106.08 586.454 113.092C581.27 125.163 581.094 125.841 583.152 125.83C584.904 125.82 585.877 124.458 588.156 118.83L590.984 111.842H602.163H613.342L615.943 118.592C618.146 124.311 618.942 125.39 621.159 125.656L623.775 125.97L621.399 120.656C620.092 117.733 615.546 107.129 611.296 97.0918C607.046 87.0548 602.998 78.8418 602.3 78.8418C601.602 78.8418 598.983 83.6798 596.481 89.5918ZM629.827 102.342C629.827 125.175 629.884 125.842 631.827 125.842C633.7 125.842 633.827 125.175 633.827 115.342V104.842L637.077 104.844C640.122 104.845 640.737 105.506 646.827 115.308C652.479 124.407 653.683 125.776 656.06 125.807C658.764 125.842 658.717 125.727 651.777 115.197L644.761 104.551L648.728 102.775C658.537 98.3828 658.204 84.4048 648.191 80.2208C646.376 79.4618 641.502 78.8418 637.359 78.8418H629.827V102.342ZM664.827 102.342C664.827 125.175 664.884 125.842 666.827 125.842C668.698 125.842 668.827 125.175 668.827 115.516C668.827 105.879 668.989 105.039 671.253 102.912C672.587 101.658 674.095 100.89 674.604 101.204C675.113 101.519 679.271 107.191 683.845 113.809C690.642 123.644 692.609 125.842 694.609 125.842C697.519 125.842 698.002 126.727 685.758 109.623C681.396 103.529 677.827 97.9698 677.827 97.2678C677.827 96.5668 681.652 92.5108 686.327 88.2548C691.002 83.9988 694.827 80.1408 694.827 79.6798C694.827 79.2188 693.86 78.8418 692.678 78.8418C691.289 78.8418 686.688 82.6258 679.678 89.5338L668.827 100.227V89.5338C668.827 79.5088 668.702 78.8418 666.827 78.8418C664.884 78.8418 664.827 79.5088 664.827 102.342ZM702.827 102.342V125.842H715.827C726.716 125.842 728.827 125.598 728.827 124.342C728.827 123.1 726.938 122.842 717.827 122.842H706.827V112.877V102.912L717.077 102.627C725.395 102.396 727.327 102.059 727.327 100.842C727.327 99.6248 725.395 99.2878 717.077 99.0568L706.827 98.7718V90.8408V82.9098L717.565 82.6258C726.864 82.3798 728.348 82.1068 728.638 80.5918C728.944 78.9968 727.812 78.8418 715.9 78.8418H702.827V102.342ZM733.827 80.8418C733.827 82.6518 734.494 82.8418 740.827 82.8418H747.827V104.342C747.827 125.175 747.889 125.842 749.827 125.842C751.765 125.842 751.827 125.175 751.827 104.342V82.8418H758.327C764.16 82.8418 764.827 82.6368 764.827 80.8418C764.827 78.9278 764.16 78.8418 749.327 78.8418C734.494 78.8418 733.827 78.9278 733.827 80.8418ZM772.827 102.342C772.827 122.564 773.036 125.842 774.327 125.842C775.618 125.842 775.827 122.564 775.827 102.342C775.827 82.1198 775.618 78.8418 774.327 78.8418C773.036 78.8418 772.827 82.1198 772.827 102.342ZM788.494 79.5088C788.127 79.8748 787.827 90.4498 787.827 103.009C787.827 125.175 787.885 125.842 789.827 125.842C791.759 125.842 791.827 125.175 791.827 106.342C791.827 95.6168 792.17 86.8418 792.588 86.8418C793.007 86.8418 800.049 95.6168 808.238 106.342C818.122 119.289 823.747 125.842 824.976 125.842C826.725 125.842 826.827 124.544 826.827 102.342C826.827 79.5918 826.764 78.8418 824.848 78.8418C822.953 78.8418 822.858 79.6698 822.598 98.5098L822.327 118.178L807.327 98.5238C793.702 80.6708 790.532 77.4708 788.494 79.5088ZM268.327 83.5038C258.158 88.8638 253.956 101.046 258.723 111.342C262.241 118.942 268.245 122.842 276.424 122.842C288.644 122.842 295.827 115.155 295.827 102.078C295.827 96.2508 295.398 94.5568 292.94 90.6818C287.955 82.8208 276.152 79.3778 268.327 83.5038ZM633.827 91.9788V101.116L640.545 100.577C646.211 100.122 647.619 99.6218 649.545 97.3838C652.052 94.4688 652.458 90.8948 650.664 87.5258C648.701 83.8398 646.576 82.9068 640.077 82.8738L633.827 82.8418V91.9788ZM600.304 89.2428C599.523 91.1128 597.57 95.9498 595.964 99.9928L593.045 107.342L601.562 107.633C606.246 107.793 610.304 107.698 610.579 107.423C611.114 106.889 602.909 85.8418 602.166 85.8418C601.923 85.8418 601.086 87.3718 600.304 89.2428ZM225.472 142.608C224.366 144.398 205.827 188.199 205.827 189.023C205.827 189.473 206.687 189.842 207.739 189.842C209.177 189.842 210.33 188.11 212.397 182.842L215.143 175.842H226.326H237.509L240.327 182.842C242.74 188.835 243.497 189.842 245.593 189.842C247.157 189.842 247.856 189.391 247.53 188.592C241.667 174.259 228.254 143.999 227.319 142.996C226.581 142.205 225.82 142.045 225.472 142.608ZM324.791 146.417C313.563 172.561 306.827 188.588 306.827 189.157C306.827 189.534 307.687 189.842 308.739 189.842C310.177 189.842 311.33 188.11 313.397 182.842L316.143 175.842H327.366H338.588L341.458 182.839C343.864 188.708 344.707 189.836 346.684 189.839C348.175 189.841 348.854 189.383 348.532 188.592C342.128 172.858 329.334 143.982 328.296 142.917C327.101 141.692 326.609 142.184 324.791 146.417ZM443.242 143.208C435.739 146.609 433.517 154.944 438.526 160.897C440.011 162.661 444.173 165.425 447.776 167.04C456.519 170.957 458.827 173.231 458.827 177.927C458.827 180.872 458.175 182.213 455.75 184.253C450.499 188.672 442.665 187.48 437.785 181.52C436.367 179.789 436.133 179.769 434.888 181.269C433.724 182.671 433.853 183.241 435.802 185.315C441.022 190.872 448.265 192.189 455.512 188.899C460.378 186.689 462.827 182.713 462.827 177.027C462.827 171.37 459.763 168.145 450.186 163.721C445.646 161.623 441.459 159.022 440.88 157.94C439.134 154.678 439.685 150.894 442.283 148.297C445.514 145.066 452.348 144.89 456.223 147.938C458.782 149.951 461.827 149.953 461.827 147.941C461.827 147.412 460.42 145.976 458.699 144.751C454.864 142.02 447.487 141.284 443.242 143.208ZM247.052 144.592C247.303 145.555 250.387 156.147 253.903 168.131C262.177 196.326 262.092 196.308 269.822 171.342C272.888 161.442 275.77 152.442 276.228 151.342C277.182 149.049 276.63 147.615 284.787 173.592C288.968 186.904 290.225 189.842 291.742 189.842C292.761 189.842 293.819 189.055 294.094 188.092C294.369 187.129 297.346 176.895 300.71 165.35C304.074 153.804 306.827 144.016 306.827 143.6C306.827 143.183 305.944 142.842 304.866 142.842C303.398 142.842 302.625 143.913 301.798 147.092C300.118 153.546 291.875 181.127 291.52 181.482C291.349 181.654 288.507 173.142 285.205 162.568C279.633 144.726 279.031 143.342 276.841 143.342C274.757 143.342 274.199 144.28 272.079 151.342C266.131 171.156 262.634 181.983 262.294 181.643C262.091 181.44 259.86 174.089 257.336 165.308C250.673 142.128 250.949 142.842 248.633 142.842C247.183 142.842 246.726 143.348 247.052 144.592ZM355.827 166.415C355.827 188.327 355.95 189.965 357.577 189.653C359.092 189.363 359.365 187.879 359.611 178.58C359.894 167.855 359.898 167.842 362.406 167.842C364.506 167.842 366.078 169.643 372.005 178.842C377.823 187.873 379.527 189.842 381.52 189.842C383.197 189.842 383.712 189.456 383.19 188.592C382.775 187.905 379.623 182.981 376.186 177.652L369.936 167.961L373.366 166.829C378.482 165.141 380.827 161.558 380.827 155.43C380.827 146.211 376.152 142.842 363.359 142.842H355.827V166.415ZM390.827 166.342V189.842L399.577 189.798C413.431 189.729 421.086 185.779 425.426 176.459C431.084 164.307 426.303 150.766 414.398 145.223C410.226 143.28 407.687 142.86 400.077 142.852L390.827 142.842V166.342ZM359.827 155.482V165.122L365.518 164.534C372.826 163.78 376.225 161.334 376.635 156.535C376.804 154.55 376.43 151.97 375.804 150.8C374.339 148.062 368.99 145.842 363.859 145.842H359.827V155.482ZM394.827 165.842V185.842H401.867C412.297 185.842 418.797 181.948 422.28 173.61C425.328 166.315 423.564 158.274 417.554 152.065C413.916 148.306 406.825 145.842 399.645 145.842H394.827V165.842ZM322.827 159.842C320.453 165.901 318.75 171.098 319.043 171.391C319.336 171.684 323.415 171.793 328.109 171.633L336.642 171.342L332.261 160.452C329.851 154.462 327.714 149.396 327.512 149.193C327.31 148.991 325.201 153.783 322.827 159.842ZM225.165 151.449C224.775 152.49 222.765 157.392 220.7 162.342L216.944 171.342L221.919 171.645C224.655 171.812 228.869 171.812 231.284 171.645L235.673 171.342L231.45 161.125C226.686 149.6 226.16 148.791 225.165 151.449Z" fill="white"/>
</svg>
