<svg width="236" height="40" viewBox="0 0 236 40" fill="none" xmlns="http://www.w3.org/2000/svg">
<path fill-rule="evenodd" clip-rule="evenodd" d="M116.597 0.0597625C116.487 0.0861705 116.28 0.120731 116.138 0.136575C115.996 0.152363 115.647 0.216259 115.363 0.27849C115.079 0.340778 114.743 0.403526 114.617 0.417993C114.398 0.442966 113.599 0.589186 112.614 0.784318C112.366 0.833575 112.081 0.881856 111.983 0.891558C111.884 0.90126 111.545 0.962515 111.229 1.02773C110.914 1.09295 110.556 1.15799 110.435 1.17229C110.313 1.18652 110.01 1.24238 109.76 1.29635L109.306 1.3944V5.1816V8.9688L109.579 8.92471C109.729 8.90042 109.916 8.87401 109.995 8.86598C110.074 8.85794 110.397 8.79783 110.713 8.73239C111.029 8.66688 111.395 8.60046 111.527 8.58467C111.659 8.56889 111.995 8.50614 112.273 8.44517C112.552 8.38426 112.883 8.3226 113.009 8.30814C113.237 8.28207 114.044 8.13361 115.12 7.91965C115.428 7.85834 115.699 7.81224 115.723 7.81729C115.746 7.82229 115.829 7.81103 115.908 7.7922C115.987 7.77337 116.278 7.71344 116.554 7.65902L117.056 7.55999V3.78002V0L116.927 0.00585569C116.856 0.00912799 116.708 0.0333545 116.597 0.0597625ZM0 17.3948V32.2063H3.87509H7.75018V17.3948V2.58339H3.87509H0V17.3948ZM96.0879 15.5717C96.08 21.137 96.0814 25.9617 96.091 26.2932C96.1377 27.8973 96.8278 29.612 97.9119 30.8178C98.1719 31.107 98.7966 31.5417 99.3636 31.8282C99.8794 32.0886 100.521 32.3001 101.212 32.4367C101.838 32.5607 101.957 32.5656 103.508 32.5315C104.408 32.5117 105.622 32.4568 106.206 32.4096C106.79 32.3623 107.365 32.3231 107.484 32.3224L107.699 32.3211V29.6727V27.0244L107.455 27.0617C106.893 27.1474 106.143 27.1636 105.632 27.1011C104.74 26.9917 104.254 26.7004 103.921 26.0758C103.581 25.4378 103.565 25.1985 103.565 20.6029V16.4777L105.675 16.4626L107.785 16.4476V13.8642V11.2808L105.618 11.2658L103.452 11.2507L103.437 8.36664L103.422 5.48254L99.7621 5.46778L96.1022 5.45297L96.0879 15.5717ZM62.6616 10.737C60.5378 10.9124 58.283 11.8607 56.7209 13.2356C55.2967 14.4891 54.095 16.7061 53.6416 18.9162C53.3441 20.3664 53.3351 22.5468 53.6194 24.2839C54.2277 28.0012 56.1603 30.6324 59.1983 31.8795C60.1279 32.2611 60.9261 32.4725 62.0927 32.6459C63.0494 32.7882 65.3778 32.7882 66.5367 32.6459C71.1628 32.0781 73.8927 30.062 74.6275 26.6708C74.6928 26.3695 74.7462 26.0709 74.7462 26.0071C74.7462 25.8922 74.7187 25.8913 71.0146 25.8913C67.4293 25.8913 67.2831 25.8955 67.2831 25.997C67.2831 26.0551 67.2006 26.2682 67.0999 26.4706C66.8524 26.9678 66.3606 27.4523 65.8652 27.687C65.4766 27.871 65.4703 27.8719 64.5848 27.8695C63.8354 27.8675 63.6305 27.8471 63.2863 27.7409C62.2157 27.4107 61.5648 26.6032 61.2271 25.1867C61.1023 24.6633 60.9681 23.802 60.9681 23.5247C60.9681 23.4276 61.3005 23.4228 67.972 23.4228H74.9758L74.9758 22.088C74.9756 19.503 74.6311 17.8279 73.7089 15.928C72.9541 14.3729 72.0239 13.232 70.9027 12.4855C69.237 11.3766 67.4056 10.8578 64.7284 10.7362C63.4021 10.676 63.4009 10.676 62.6616 10.737ZM84.4196 10.7717C82.1533 10.9593 80.061 11.662 78.3586 12.8071C77.5306 13.3641 76.6379 14.6896 76.2741 15.9022C76.0414 16.6779 75.9913 17.1486 76.0265 18.2273C76.0527 19.0276 76.0854 19.3047 76.2083 19.7669C76.805 22.0105 78.3737 23.48 80.8653 24.1296C81.1783 24.2112 81.796 24.3301 82.238 24.3938C83.0441 24.51 84.9977 24.7766 85.4816 24.8365C85.6237 24.8541 85.9725 24.921 86.2566 24.9853C87.3201 25.2257 87.7703 25.6029 87.8674 26.3344C87.976 27.153 87.4247 27.8346 86.4289 28.113C85.9393 28.2499 84.8346 28.2756 84.2794 28.1631C83.2453 27.9536 82.7393 27.5091 82.4816 26.584L82.3529 26.1218L79.0088 26.1214L75.6647 26.121L75.665 26.2789C75.6655 26.6176 75.8419 27.4947 76.0087 27.9868C76.371 29.0562 76.9971 30.051 77.7456 30.7467C78.3227 31.2831 79.6813 31.9907 80.9176 32.3988C81.9136 32.7276 82.659 32.8436 83.989 32.8769C87.4502 32.9635 89.702 32.489 91.5197 31.2903C93.0459 30.2838 94.0643 28.7172 94.3579 26.9247C94.4859 26.1437 94.4851 24.1788 94.3566 23.5821C94.1071 22.4231 93.4225 21.2343 92.6314 20.5861C91.5861 19.7295 90.1084 19.1308 88.7305 19.0056C87.2905 18.8747 84.4548 18.4747 84.0068 18.3392C83.139 18.0768 82.7834 17.6599 82.7834 16.9049C82.7834 16.339 82.907 16.0122 83.2277 15.7299C83.7839 15.2403 85.1294 15.0761 85.9794 15.3942C86.6169 15.6327 87.2221 16.3872 87.2994 17.0397L87.3347 17.3374H90.6564H93.9781L93.9779 17.0935C93.9778 16.9593 93.9373 16.617 93.8879 16.3328C93.6571 15.0052 93.045 13.8649 92.0619 12.9311C91.7013 12.5885 91.5076 12.4642 90.7559 12.0929C89.4366 11.4412 88.3098 11.0868 86.9022 10.881C86.2684 10.7883 84.9303 10.7294 84.4196 10.7717ZM150.928 10.7744C148.365 11.0363 146.199 12.1879 144.805 14.0288C143.649 15.5557 142.963 17.1495 142.651 19.031C142.549 19.6424 142.551 22.4862 142.653 23.3079C143.274 28.3111 145.9 30.9487 150.596 31.2853C152.262 31.4047 153.082 31.3488 153.945 31.0569C155.434 30.5536 156.678 29.449 157.275 28.0997C157.351 27.9271 157.439 27.7858 157.471 27.7858C157.547 27.7858 157.547 30.9317 157.472 31.7024C157.295 33.5256 156.643 34.5343 155.335 35.0095C154.939 35.1532 154.861 35.161 153.827 35.1615C152.931 35.1619 152.675 35.1432 152.394 35.0569C151.459 34.7695 151.005 34.331 150.722 33.4406L150.594 33.0387L146.934 33.024L143.275 33.0092L143.311 33.5126C143.414 34.9718 144.08 36.3946 145.121 37.3852C146.674 38.8611 148.92 39.6777 152.047 39.9026C153.115 39.9794 155.29 39.9467 156.209 39.8399C159.874 39.4145 162.533 37.8442 163.755 35.3835C164.21 34.4671 164.437 33.7337 164.661 32.4646L164.792 31.7183V21.4709V11.2234L161.218 11.2086L157.644 11.1938V12.4826C157.644 13.1914 157.622 13.7852 157.595 13.8022C157.567 13.8191 157.421 13.6462 157.27 13.418C156.875 12.8215 156.536 12.4417 156.055 12.0543C155.538 11.6391 155.255 11.47 154.598 11.1871C153.824 10.8532 153.132 10.7336 152.038 10.7446C151.538 10.7497 151.038 10.763 150.928 10.7744ZM23.2792 10.9339C22.5026 11.0414 21.9181 11.2232 21.1551 11.5947C19.959 12.1771 19.019 13.0025 18.2985 14.103C18.1054 14.3979 17.9264 14.6392 17.9007 14.6392C17.8751 14.6392 17.8541 13.8771 17.8541 12.9457V11.2521H14.2087H10.5632V21.7292V32.2063H14.3438H18.1245L18.1644 26.2789C18.2037 20.4288 18.2349 19.4482 18.404 18.7153C18.6295 17.7384 19.2291 16.9317 20.0005 16.5671C20.5738 16.296 20.934 16.2257 21.7579 16.224C22.419 16.2227 22.5065 16.2354 22.8689 16.3866C23.3395 16.5828 23.8861 17.0622 24.0791 17.4479C24.2445 17.7783 24.4366 18.3618 24.5153 18.7727C24.5556 18.9832 24.5744 21.2731 24.5717 25.6474L24.5677 32.2063H28.3599H32.1521L32.1333 24.5566L32.1145 16.9069L31.9646 16.2754C31.6176 14.8136 30.9817 13.4305 30.3453 12.7537C29.2675 11.6074 27.6935 11.0298 25.3173 10.9088C23.9906 10.8413 23.9447 10.8419 23.2792 10.9339ZM132.643 10.885C131.333 11.0556 130.351 11.3807 129.489 11.9298C128.996 12.2437 128.197 12.9307 127.872 13.3197C127.537 13.7219 126.989 14.5132 126.988 14.5962C126.988 14.6198 126.949 14.6392 126.902 14.6392C126.827 14.6392 126.816 14.4128 126.816 12.9457V11.2521H123.17H119.525V21.7296V32.2071L123.3 32.1924L127.074 32.1776L127.086 30.9433C127.192 20.052 127.222 19.1565 127.495 18.3695C127.764 17.5915 128.233 16.9703 128.786 16.6555C129.333 16.345 129.854 16.2268 130.691 16.2242C131.381 16.222 131.466 16.234 131.819 16.3817C132.06 16.4823 132.334 16.6616 132.559 16.8651C132.975 17.2417 133.178 17.6341 133.395 18.4786L133.533 19.017V25.6116V32.2063H137.323H141.113L141.097 24.5279L141.082 16.8495L140.954 16.3041C140.725 15.327 140.535 14.7984 140.096 13.9157C139.602 12.9233 138.996 12.2923 138.07 11.8055C136.852 11.1657 135.82 10.9474 133.734 10.8885C133.228 10.8742 132.738 10.8726 132.643 10.885ZM31.747 11.2783C31.747 11.2928 31.9393 11.8418 32.1743 12.4983C32.4094 13.1548 32.954 14.6866 33.3847 15.9022C33.8154 17.1179 34.5161 19.0941 34.9419 20.294C35.3677 21.4938 36.0092 23.3022 36.3674 24.3126C37.2246 26.7309 38.5124 30.3626 38.8765 31.3882L39.1668 32.2063H43.0564H46.9459L47.2655 31.3308C47.4412 30.8493 47.7822 29.9257 48.0232 29.2785C48.2642 28.6312 48.6129 27.6882 48.7979 27.183C48.983 26.6778 49.3447 25.6962 49.6018 25.0015C50.7525 21.8925 51.5337 19.7773 51.9552 18.6291C52.1406 18.1239 52.4896 17.181 52.7306 16.5337C52.9717 15.8864 53.3202 14.9435 53.5051 14.4383C53.6899 13.9331 54.0203 13.0354 54.2392 12.4433L54.6373 11.3669H50.9815H47.3258L47.1088 12.0989C46.9894 12.5014 46.7937 13.1538 46.6739 13.5485C46.554 13.9431 46.3213 14.7182 46.1566 15.2707C45.992 15.8233 45.7595 16.5983 45.64 16.993C45.5204 17.3877 45.2883 18.1627 45.1242 18.7153C44.9601 19.2678 44.7776 19.8749 44.7186 20.0644C44.5003 20.7658 44.0543 22.6989 43.629 24.7862C43.5225 25.309 43.4113 25.7191 43.3761 25.7191C43.3415 25.7191 43.254 25.4414 43.1817 25.102C42.9912 24.2077 42.1015 20.6259 41.9405 20.1056C41.8652 19.8619 41.6053 18.9908 41.3631 18.1699C41.121 17.3489 40.7694 16.1606 40.5819 15.5291C40.3944 14.8976 40.1613 14.1096 40.064 13.7781C39.9666 13.4466 39.8014 12.8911 39.6968 12.5438C39.5923 12.1965 39.4652 11.7637 39.4143 11.5822L39.3218 11.2521H35.5344C33.4513 11.2521 31.747 11.2639 31.747 11.2783ZM109.536 21.7292V32.2063H113.296H117.056V21.7292V11.2521H113.296H109.536V21.7292ZM197.917 15.1579C196 15.3771 193.999 16.3403 192.846 17.599C191.787 18.7543 191 20.4566 190.763 22.1024C190.679 22.6839 190.685 24.8546 190.772 25.5182C190.97 27.0291 191.627 28.6016 192.599 29.891C193.609 31.2309 195.49 32.2916 197.371 32.581C198.008 32.679 199.432 32.6913 200.23 32.6058C201.676 32.4506 203.034 31.9408 204.16 31.1304C204.68 30.7558 205.439 29.9884 205.82 29.4507C206.477 28.5253 207.007 27.2259 207.251 25.9411C207.426 25.0219 207.467 23.2046 207.334 22.252C207.046 20.1766 206.315 18.5832 205.094 17.3661C203.974 16.2495 202.597 15.5703 200.845 15.2708C200.065 15.1375 198.592 15.0807 197.917 15.1579ZM63.6089 15.2715C62.0848 15.5137 61.2451 16.7444 60.9949 19.1028L60.9568 19.4616H64.1199H67.2831L67.2813 19.3037C67.2778 18.9913 67.1659 18.276 67.0512 17.8328C66.6958 16.4596 66.0329 15.6449 65.0434 15.365C64.6342 15.2493 64.0066 15.2083 63.6089 15.2715ZM180.827 15.3583C177.062 15.872 174.584 18.4762 174.087 22.4438C173.957 23.4779 173.97 25.1999 174.113 26.0128C174.329 27.2341 174.824 28.4638 175.539 29.5546C176.464 30.9644 178.206 32.0837 180.163 32.5251C180.721 32.6509 182.585 32.7008 183.428 32.6125C184.639 32.4858 185.651 32.1834 186.862 31.5874C187.479 31.2839 187.714 31.1319 188.034 30.8314C189.167 29.7678 189.921 28.1721 190.05 26.5653L190.091 26.0623L187.717 26.0773L185.344 26.0923L185.311 26.6502C185.282 27.1542 185.256 27.254 185.043 27.6835C184.516 28.7477 183.528 29.3614 182.359 29.3511C180.742 29.337 179.744 28.3671 179.342 26.4205C178.97 24.6177 179.082 21.9781 179.586 20.6959C179.904 19.8865 180.365 19.2641 180.864 18.9718C181.934 18.3449 183.373 18.4461 184.214 19.2075C184.683 19.6321 184.948 20.1516 185.114 20.9762L185.243 21.6144L187.641 21.6294L190.04 21.6444L190.002 21.1701C189.922 20.1708 189.615 19.1785 189.13 18.3511C188.829 17.8376 188.166 17.1159 187.618 16.7059C186.696 16.015 185.218 15.4895 183.753 15.3311C183.01 15.2506 181.515 15.2645 180.827 15.3583ZM217.579 15.3581C216.14 15.6533 214.839 16.5575 214.026 17.8277L213.733 18.2847V16.9499V15.6152H211.379H209.025V23.9107V32.2063H211.49H213.955L213.976 26.9678L213.997 21.7292L214.129 21.2412C214.403 20.2325 214.964 19.4748 215.695 19.1258C216.197 18.8864 216.517 18.8247 217.321 18.8121C217.967 18.8021 218.031 18.8114 218.354 18.9621C218.843 19.1903 219.206 19.5674 219.411 20.0617C219.761 20.9046 219.761 20.8922 219.761 26.8162V32.2063H222.236H224.711L224.674 30.9864C224.654 30.3154 224.611 28.7847 224.579 27.5849C224.546 26.3851 224.499 24.7446 224.474 23.9394C224.45 23.1343 224.449 22.2689 224.472 22.0163C224.558 21.0662 224.861 20.2949 225.357 19.7605C225.992 19.0771 226.755 18.802 227.905 18.841C228.5 18.8612 228.607 18.8812 228.884 19.0247C229.362 19.2728 229.708 19.6642 229.887 20.1614C230.213 21.0628 230.207 20.9297 230.208 26.7955L230.209 32.2063H232.68H235.151L235.13 26.0779C235.112 20.8193 235.096 19.8885 235.02 19.519C234.788 18.4013 234.438 17.5814 233.914 16.9331C233.001 15.8031 231.611 15.2707 229.578 15.2718C227.885 15.2727 226.506 15.8207 225.391 16.9354C224.972 17.3545 224.404 18.152 224.288 18.4835C224.212 18.7007 224.091 18.7086 224.039 18.5C223.957 18.1686 223.515 17.3583 223.202 16.9651C222.508 16.092 221.506 15.5509 220.22 15.3546C219.547 15.252 218.087 15.2539 217.579 15.3581ZM153.253 15.9257C152.137 16.1513 151.302 16.9235 150.757 18.233C150.228 19.5029 150.101 21.7953 150.469 23.4476C150.868 25.2425 151.733 26.2605 153.109 26.5557C154.69 26.8945 156.367 26.1003 157.061 24.684C157.475 23.8392 157.484 23.767 157.458 21.2523C157.435 19.0449 157.434 19.0276 157.28 18.4921C156.87 17.0616 156.026 16.1896 154.803 15.9316C154.327 15.8313 153.731 15.8291 153.253 15.9257ZM198.55 18.6042C197.455 18.7873 196.663 19.5445 196.212 20.8381C195.901 21.7344 195.728 23.2444 195.789 24.5406C195.942 27.7541 197.013 29.3399 199.036 29.3459C200.243 29.3494 201.114 28.787 201.673 27.6431C202.122 26.7254 202.326 25.5742 202.326 23.9682C202.326 22.3505 202.122 21.2116 201.664 20.2737C201.043 19.0032 199.883 18.3814 198.55 18.6042ZM167.289 29.7377V32.2063H169.901H172.513V29.7377V27.2692H169.901H167.289V29.7377Z" fill="#ECECEC"/>
</svg>
