<svg width="171" height="47" viewBox="0 0 171 47" fill="none" xmlns="http://www.w3.org/2000/svg">
<path d="M53.6284 0.0467539C53.6191 0.0423066 53.6088 0.04 53.5984 0.04C53.5881 0.04 53.5778 0.0423066 53.5684 0.0467539C53.549 0.0456492 53.5297 0.050904 53.5134 0.0617256C53.4972 0.0725472 53.4849 0.0883501 53.4784 0.106754C52.8594 1.71933 51.8853 3.17189 50.6284 4.35675C49.8539 5.05643 48.9814 5.63925 48.0384 6.08675C42.0384 9.08675 34.4184 10.5068 29.9284 14.1368C28.6725 15.2293 27.7969 16.6933 27.4284 18.3168C27.064 16.6941 26.1918 15.2299 24.9384 14.1368C20.4484 10.5068 12.8484 9.06675 6.81844 6.13675C5.8521 5.66601 4.96212 5.05247 4.17844 4.31675C2.92158 3.13189 1.94751 1.67933 1.32844 0.0667543C1.32077 0.0491761 1.30821 0.0341739 1.29225 0.0235357C1.2763 0.0128976 1.25762 0.0070718 1.23844 0.00675392C1.22907 0.00230662 1.21882 0 1.20844 0C1.19807 0 1.18782 0.00230662 1.17844 0.00675392C0.178442 2.00675 -2.37156 8.55675 5.75844 17.5768C10.2884 22.5768 14.4884 24.9568 16.3284 26.6368C22.3284 32.1768 23.3284 39.7268 23.3284 45.2668C23.3284 45.9068 24.3284 46.2668 27.3284 46.2668C30.3284 46.2668 31.3284 45.9068 31.3284 45.2668C31.3284 39.7268 32.3284 32.1768 38.3284 26.6368C40.1684 24.9568 44.3284 22.6368 48.8984 17.5768C57.1784 8.59675 54.6484 2.08675 53.6284 0.0467539ZM65.6284 26.6268C62.5245 26.6706 59.4498 26.0216 56.6284 24.7268L58.2284 21.6268C60.4524 22.5556 62.8211 23.0902 65.2284 23.2068C67.3884 23.2068 68.0484 22.7268 68.0484 22.2868C68.0484 20.6668 57.4584 21.9268 57.4584 16.8068C57.4584 14.3268 61.0684 12.3068 65.5884 12.3068C68.3926 12.2583 71.1704 12.8535 73.7084 14.0468L72.1084 17.1268C69.9659 16.2252 67.6724 15.7366 65.3484 15.6868C63.6684 15.6868 63.0284 16.1268 63.0284 16.5268C63.0284 18.4468 73.7884 16.8668 73.7884 21.8668C73.7884 24.6868 69.9684 26.6268 65.5884 26.6268H65.6284ZM87.5084 26.1268V21.5068H82.1784V26.1268H76.1784V12.8068H82.1784V17.8068H87.4584V12.8068H93.4584V26.1268H87.5084ZM104.718 26.6268C99.3784 26.6268 95.8184 23.4268 95.8184 19.5668V19.3268C95.8184 15.4468 99.3784 12.3268 104.718 12.3268C110.058 12.3268 113.618 15.4668 113.618 19.3268V19.5668C113.578 23.4268 109.998 26.6268 104.678 26.6268H104.718ZM107.538 19.2868C107.571 18.8965 107.523 18.5036 107.396 18.133C107.269 17.7624 107.067 17.4222 106.802 17.1338C106.537 16.8455 106.215 16.6153 105.856 16.4578C105.498 16.3004 105.11 16.2191 104.718 16.2191C104.327 16.2191 103.939 16.3004 103.581 16.4578C103.222 16.6153 102.9 16.8455 102.635 17.1338C102.37 17.4222 102.168 17.7624 102.041 18.133C101.914 18.5036 101.866 18.8965 101.898 19.2868V19.6268C101.866 20.017 101.914 20.4099 102.041 20.7805C102.168 21.1511 102.37 21.4913 102.635 21.7797C102.9 22.068 103.222 22.2982 103.581 22.4557C103.939 22.6131 104.327 22.6945 104.718 22.6945C105.11 22.6945 105.498 22.6131 105.856 22.4557C106.215 22.2982 106.537 22.068 106.802 21.7797C107.067 21.4913 107.269 21.1511 107.396 20.7805C107.523 20.4099 107.571 20.017 107.538 19.6268V19.2868ZM127.608 26.1268C126.808 26.1268 126.308 25.2468 126.308 24.0668V22.6268C126.308 21.7868 126.028 21.2068 124.888 21.2068H121.888V26.1268H115.948V12.8068H126.508C130.128 12.8068 132.148 14.5468 132.148 16.6668V16.8468C132.148 18.1268 130.928 19.3068 128.968 19.6868C131.288 19.9068 132.228 21.2668 132.228 22.8068V23.9068C132.184 24.6923 132.441 25.4651 132.948 26.0668V26.1268H127.608ZM126.148 17.8668C126.148 16.9668 125.548 16.6068 124.008 16.6068H121.908V19.1668H124.008C125.548 19.1668 126.148 18.7868 126.148 17.9268V17.8668ZM145.318 17.0268V26.1268H139.318V17.0268H133.958V12.8068H150.618V17.0268H145.318ZM164.238 21.0268V26.1268H158.238V21.0268L151.618 12.8068H158.078L161.498 17.5468L164.818 12.8068H170.978L164.238 21.0268ZM69.8484 45.6268L68.0884 42.3268H60.2684L58.5584 45.6268H55.9284L63.1784 32.3068H65.1784L72.4984 45.6268H69.8484ZM64.1084 34.9068L61.1784 40.5068H67.0784L64.1084 34.9068ZM91.8984 45.6268H89.6984L85.2984 35.4468L80.8384 45.6268H78.6184L72.8784 32.3068H75.5784L79.8184 42.6868L84.3184 32.3068H86.3184L90.9784 42.6868L95.1784 32.3068H97.8184L91.8984 45.6268ZM112.088 45.6268L110.328 42.3268H102.508L100.808 45.6268H98.1784L105.378 32.3068H107.458L114.778 45.6268H112.088ZM106.348 34.9068L103.448 40.5068H109.348L106.348 34.9068ZM129.778 45.6268C129.098 45.6268 128.778 44.6868 128.718 43.4868L128.638 42.1268C128.558 40.8068 128.018 40.2468 125.518 40.2468H120.798V45.6268H118.298V32.3068H125.558C129.558 32.3068 131.358 33.9068 131.358 35.9668C131.358 37.4268 130.618 38.8068 128.018 39.2868C130.618 39.4868 131.178 40.6668 131.198 42.2268V43.3268C131.175 43.7364 131.235 44.1465 131.376 44.5318C131.517 44.917 131.736 45.2693 132.018 45.5668V45.6268H129.778ZM128.838 36.2868C128.838 35.2868 128.058 34.3868 125.918 34.3868H120.798V38.3868H126.178C128.018 38.3868 128.878 37.5068 128.878 36.4468L128.838 36.2868ZM143.018 45.6268H136.178V32.3068H142.998C147.728 32.3068 150.728 35.1668 150.728 38.7668V39.2068C150.748 42.7468 147.748 45.6268 143.018 45.6268ZM148.248 38.8068C148.248 36.2268 146.248 34.3868 142.958 34.3868H138.698V43.5868H142.958C146.218 43.5868 148.248 41.7068 148.248 39.1268V38.8068ZM161.248 46.1468C158.731 46.1181 156.251 45.5306 153.988 44.4268L154.908 42.4268C156.907 43.4657 159.117 44.0336 161.368 44.0868C164.248 44.0868 165.528 43.1468 165.528 42.0868C165.528 38.9068 154.368 41.0268 154.368 36.1468C154.368 33.6668 157.048 31.7668 161.268 31.7668C163.589 31.7815 165.859 32.4392 167.828 33.6668L166.468 35.3468C164.869 34.3891 163.042 33.878 161.178 33.8668C158.578 33.8668 156.858 34.7468 156.858 35.8668C156.858 38.7668 168.038 36.8668 168.038 41.8668C168.008 44.4868 165.178 46.1468 161.178 46.1468H161.248Z" fill="white"/>
</svg>
