<svg width="777" height="205" viewBox="0 0 777 205" fill="none" xmlns="http://www.w3.org/2000/svg">
<g clipPath="url(#clip0_2269_112)">
<path d="M290.5 30.4V53.6C284.7 57.8 277.9 59.9 270.2 59.9C265.5 59.9 261.2 59.2 257.3 57.7C253.5 56.2 250.2 54.2 247.5 51.5C244.8 48.9 242.7 45.7 241.2 42C239.7 38.3 239 34.3 239 29.9C239 25.5 239.7 21.4 241.1 17.8C242.5 14.1 244.5 11 247.2 8.3C249.8 5.7 253 3.6 256.7 2.2C260.4 0.8 264.6 0 269.2 0C271.6 0 273.7 0.2 275.8 0.5C277.8 0.9 279.7 1.4 281.4 2C283.1 2.7 284.7 3.4 286.2 4.4C287.7 5.4 289 6.4 290.2 7.5L287.5 11.9C287.1 12.6 286.5 13 285.8 13.2C285.1 13.4 284.4 13.2 283.6 12.7C282.8 12.2 282 11.8 281.1 11.2C280.2 10.7 279.2 10.2 278.1 9.8C277 9.4 275.6 9 274.2 8.7C272.7 8.4 270.9 8.3 268.9 8.3C265.8 8.3 263 8.8 260.5 9.8C258 10.8 255.9 12.3 254.1 14.2C252.3 16.1 251 18.4 250 21.1C249.1 23.8 248.6 26.8 248.6 30.1C248.6 33.6 249.1 36.7 250.1 39.5C251.1 42.3 252.5 44.6 254.4 46.5C256.2 48.4 258.5 49.9 261.1 50.9C263.7 51.9 266.6 52.4 269.9 52.4C272.3 52.4 274.5 52.1 276.3 51.6C278.2 51.1 280 50.4 281.8 49.4V37.6H273.6C273 37.6 272.5 37.4 272.1 37.1C271.7 36.8 271.6 36.3 271.6 35.8V30.4H290.5Z" fill="white"/>
<path d="M335.6 51.2V59.2H301.8V0.699951H311.3V51.2999H335.6V51.2Z" fill="white"/>
<path d="M396.4 29.9C396.4 34.2 395.7 38.2 394.3 41.9C392.9 45.6 390.9 48.7 388.3 51.4C385.7 54 382.7 56.1 379.1 57.6C375.5 59.1 371.5 59.8 367.1 59.8C362.7 59.8 358.8 59.1 355.2 57.6C351.6 56.1 348.5 54 346 51.4C343.4 48.8 341.4 45.6 340 41.9C338.6 38.2 337.9 34.2 337.9 29.9C337.9 25.6 338.6 21.6 340 17.9C341.4 14.2 343.4 11.1 346 8.4C348.6 5.7 351.7 3.7 355.2 2.2C358.8 0.7 362.8 0 367.1 0C371.5 0 375.5 0.7 379.1 2.2C382.7 3.7 385.8 5.8 388.3 8.4C390.9 11.1 392.8 14.2 394.3 17.9C395.7 21.6 396.4 25.6 396.4 29.9ZM386.7 29.9C386.7 26.5 386.2 23.5 385.3 20.8C384.4 18.1 383.1 15.8 381.4 14C379.7 12.2 377.7 10.7 375.2 9.7C372.8 8.7 370.1 8.2 367.1 8.2C364.1 8.2 361.4 8.7 359 9.7C356.6 10.7 354.5 12.1 352.8 14C351.1 15.9 349.8 18.1 348.9 20.8C348 23.5 347.5 26.5 347.5 29.9C347.5 33.3 348 36.3 348.9 39C349.8 41.7 351.1 44 352.8 45.8C354.5 47.7 356.6 49.1 359 50.1C361.4 51.1 364.1 51.6 367.1 51.6C370.1 51.6 372.8 51.1 375.2 50.1C377.6 49.1 379.7 47.7 381.4 45.8C383.1 43.9 384.4 41.7 385.3 39C386.2 36.3 386.7 33.3 386.7 29.9Z" fill="white"/>
<path d="M426.3 0.699951C430 0.699951 433.2 1.09995 435.9 1.79995C438.6 2.49995 440.7 3.49995 442.4 4.89995C444.1 6.19995 445.4 7.79995 446.2 9.79995C447 11.7 447.4 13.9 447.4 16.2C447.4 17.6 447.2 18.9 446.8 20.2C446.4 21.5 445.7 22.6999 444.8 23.7999C443.9 24.8999 442.8 25.8999 441.5 26.7999C440.2 27.6999 438.6 28.4 436.8 29C445.1 30.8 449.2 35.2 449.2 42.2C449.2 44.7 448.7 46.9999 447.8 49.0999C446.9 51.1999 445.5 53 443.7 54.5C441.9 56 439.7 57.2 437.1 58C434.5 58.8 431.5 59.2999 428.2 59.2999H406.7V0.699951H426.3ZM416.3 8.09995V26.4H425.8C429.9 26.4 432.9 25.6 434.9 24C436.9 22.4 437.9 20.2 437.9 17.2C437.9 14 437 11.6 435.1 10.2C433.2 8.79995 430.3 7.99995 426.3 7.99995H416.3V8.09995ZM428.1 51.7C430.2 51.7 432.1 51.4 433.5 50.9C435 50.4 436.2 49.6999 437.1 48.7999C438 47.8999 438.7 46.9 439.1 45.7C439.5 44.5 439.7 43.3 439.7 41.9C439.7 39.1 438.8 37 436.9 35.4C435 33.8 432 33 428 33H416.3V51.5999H428.1V51.7Z" fill="white"/>
<path d="M508 59.2H500.6C499.8 59.2 499.1 58.9999 498.6 58.5999C498.1 58.1999 497.7 57.7 497.4 57L492.5 44.0999H467.3L462.5 57C462.3 57.5 461.9 58 461.4 58.5C460.9 59 460.2 59.2 459.4 59.2H452L475.2 0.699951H484.8L508 59.2ZM490 37.2L482 15.8C481.3 14.1 480.7 12 480 9.49995C479.7 10.8 479.4 11.9 479 13C478.6 14.1 478.3 15 478 15.8L470 37.0999H490V37.2Z" fill="white"/>
<path d="M548.6 51.2V59.2H514.8V0.699951H524.3V51.2999H548.6V51.2Z" fill="white"/>
<path d="M252.1 142.3H242.5V83.8H252.1V142.3Z" fill="white"/>
<path d="M314.5 83.8V142.3H309.7C309 142.3 308.3 142.2 307.8 141.9C307.3 141.6 306.8 141.2 306.3 140.6L274.1 99.3C274.2 100.1 274.2 100.9 274.3 101.6C274.4 102.3 274.4 103.1 274.4 103.7V142.2H266V83.8H271C271.4 83.8 271.8 83.8 272 83.9C272.3 83.9 272.5 84 272.8 84.1C273 84.2 273.3 84.4 273.5 84.6C273.7 84.8 273.9 85.1 274.2 85.4L306.4 126.7C306.3 125.9 306.3 125 306.2 124.2C306.2 123.4 306.1 122.6 306.1 121.9V83.8H314.5Z" fill="white"/>
<path d="M338 91.4V110.1H360.9V117.8H338V142.2H328.4V83.8H364.9V91.5H338V91.4Z" fill="white"/>
<path d="M408.2 134.3V142.3H374.4V83.8H383.9V134.4H408.2V134.3Z" fill="white"/>
<path d="M437.6 134.6C439.8 134.6 441.9 134.2 443.6 133.5C445.4 132.7 446.9 131.7 448.1 130.3C449.3 128.9 450.3 127.3 450.9 125.4C451.6 123.5 451.9 121.4 451.9 119V83.8H461.4V119C461.4 122.4 460.9 125.6 459.8 128.6C458.7 131.5 457.1 134.1 455.1 136.2C453 138.3 450.5 140 447.6 141.2C444.7 142.4 441.3 143 437.7 143C434 143 430.7 142.4 427.8 141.2C424.9 140 422.4 138.3 420.3 136.2C418.2 134.1 416.7 131.5 415.6 128.6C414.5 125.7 414 122.5 414 119V83.8H423.5V119C423.5 121.3 423.8 123.5 424.5 125.4C425.2 127.3 426.1 129 427.3 130.3C428.5 131.7 430 132.7 431.8 133.5C433.4 134.2 435.4 134.6 437.6 134.6Z" fill="white"/>
<path d="M511.2 134.6V142.3H474.7V83.8H511.2V91.5H484.2V109.1H505.7V116.5H484.2V134.6H511.2Z" fill="white"/>
<path d="M569.9 83.8V142.3H565.1C564.4 142.3 563.7 142.2 563.2 141.9C562.7 141.6 562.2 141.2 561.7 140.6L529.5 99.3C529.6 100.1 529.6 100.9 529.7 101.6C529.8 102.3 529.8 103.1 529.8 103.7V142.2H521.4V83.8H526.4C526.8 83.8 527.2 83.8 527.4 83.9C527.7 83.9 527.9 84 528.2 84.1C528.4 84.2 528.7 84.4 528.9 84.6C529.1 84.8 529.3 85.1 529.6 85.4L561.8 126.7C561.7 125.9 561.7 125 561.6 124.2C561.6 123.4 561.5 122.6 561.5 121.9V83.8H569.9Z" fill="white"/>
<path d="M624.5 129.2C625 129.2 625.5 129.4 625.8 129.8L629.6 133.9C627.2 136.8 624.3 139 620.8 140.5C617.3 142.1 613.2 142.8 608.4 142.8C604.1 142.8 600.2 142.1 596.8 140.6C593.3 139.1 590.4 137.1 588 134.4C585.6 131.8 583.7 128.6 582.4 124.9C581.1 121.2 580.4 117.2 580.4 112.8C580.4 108.4 581.1 104.4 582.5 100.7C583.9 97 585.9 93.9 588.4 91.2C590.9 88.5 594 86.5 597.5 85C601 83.5 604.9 82.8 609.2 82.8C613.4 82.8 617.2 83.5 620.4 84.9C623.6 86.3 626.5 88.1 628.8 90.4L625.7 94.8C625.5 95.1 625.2 95.4 624.9 95.6C624.6 95.8 624.2 95.9 623.7 95.9C623.2 95.9 622.5 95.6 621.8 95.1C621.1 94.6 620.2 94 619.2 93.4C618.1 92.8 616.8 92.2 615.2 91.7C613.6 91.2 611.6 90.9 609.2 90.9C606.4 90.9 603.8 91.4 601.5 92.4C599.2 93.4 597.2 94.8 595.5 96.7C593.8 98.6 592.5 100.8 591.6 103.5C590.7 106.2 590.2 109.2 590.2 112.6C590.2 116 590.7 119.1 591.7 121.8C592.7 124.5 594 126.8 595.7 128.6C597.4 130.5 599.4 131.9 601.7 132.8C604 133.7 606.5 134.3 609.1 134.3C610.7 134.3 612.2 134.2 613.5 134C614.8 133.8 616 133.5 617.1 133.1C618.2 132.7 619.2 132.2 620.2 131.6C621.2 131 622.1 130.3 623.1 129.4C623.5 129.5 624 129.2 624.5 129.2Z" fill="white"/>
<path d="M674.5 134.6V142.3H638V83.8H674.5V91.5H647.5V109.1H669V116.5H647.5V134.6H674.5Z" fill="white"/>
<path d="M729.3 142.3H720.8C719.1 142.3 717.9 141.6 717.1 140.3L703.4 120.6C702.9 119.9 702.4 119.4 701.9 119.1C701.4 118.8 700.5 118.7 699.5 118.7H694.2V142.3H684.7V83.8H702C705.8 83.8 709.2 84.2 711.9 85C714.7 85.8 717 86.9 718.8 88.4C720.6 89.9 721.9 91.6 722.8 93.6C723.7 95.6 724.1 97.9 724.1 100.4C724.1 102.4 723.8 104.3 723.2 106.1C722.6 107.9 721.7 109.5 720.6 110.9C719.4 112.3 718 113.6 716.4 114.6C714.7 115.7 712.8 116.5 710.7 117.1C711.9 117.8 712.9 118.8 713.7 120.1L729.3 142.3ZM701.7 111.8C703.9 111.8 705.8 111.5 707.4 111C709 110.5 710.4 109.7 711.5 108.8C712.6 107.9 713.4 106.7 713.9 105.4C714.4 104.1 714.7 102.6 714.7 101C714.7 97.8 713.6 95.4 711.5 93.7C709.4 92 706.2 91.2 701.9 91.2H694.2V111.8H701.7Z" fill="white"/>
<path d="M280.2 166.5V204.2H274.8V178.3C274.8 177.9 274.8 177.4 274.8 176.9C274.8 176.4 274.9 175.9 274.9 175.4L262.8 197.8C262.3 198.7 261.6 199.2 260.6 199.2H259.7C258.7 199.2 258 198.7 257.5 197.8L245.2 175.3C245.3 175.8 245.3 176.3 245.3 176.8C245.3 177.3 245.3 177.8 245.3 178.2V204.1H239.9V166.4H244.5C245 166.4 245.5 166.4 245.8 166.5C246.1 166.6 246.4 166.9 246.6 167.4L258.7 189.3C259 189.8 259.2 190.3 259.4 190.9C259.6 191.4 259.8 192 260 192.5C260.2 191.9 260.4 191.4 260.7 190.8C260.9 190.3 261.2 189.7 261.4 189.2L273.3 167.3C273.5 166.8 273.8 166.5 274.1 166.4C274.4 166.3 274.8 166.3 275.4 166.3H280.2V166.5Z" fill="white"/>
<path d="M320.8 204.2H316C315.5 204.2 315 204.1 314.7 203.8C314.4 203.5 314.1 203.2 313.9 202.8L310.8 194.5H294.6L291.5 202.8C291.4 203.1 291.1 203.5 290.8 203.8C290.5 204.1 290 204.2 289.5 204.2H284.8L299.8 166.5H306L320.8 204.2ZM309.2 190L304 176.2C303.6 175.1 303.2 173.8 302.7 172.1C302.5 172.9 302.3 173.7 302.1 174.4C301.9 175.1 301.7 175.7 301.5 176.2L296.3 190H309.2Z" fill="white"/>
<path d="M353.9 204.2H348.4C347.3 204.2 346.5 203.8 346 202.9L337.2 190.2C336.9 189.8 336.6 189.4 336.2 189.3C335.9 189.1 335.3 189 334.6 189H331.2V204.2H325.1V166.5H336.2C338.7 166.5 340.8 166.8 342.6 167.3C344.4 167.8 345.9 168.5 347 169.5C348.1 170.5 349 171.6 349.6 172.9C350.2 174.2 350.4 175.7 350.4 177.3C350.4 178.6 350.2 179.8 349.8 181C349.4 182.1 348.8 183.2 348.1 184.1C347.4 185 346.4 185.8 345.4 186.5C344.3 187.2 343.1 187.7 341.7 188.1C342.5 188.6 343.1 189.2 343.6 190L353.9 204.2ZM336.1 184.5C337.5 184.5 338.7 184.3 339.8 184C340.8 183.7 341.7 183.2 342.4 182.6C343.1 182 343.6 181.3 344 180.4C344.3 179.6 344.5 178.6 344.5 177.6C344.5 175.5 343.8 174 342.5 172.9C341.1 171.8 339.1 171.3 336.3 171.3H331.3V184.6H336.1V184.5Z" fill="white"/>
<path d="M364.6 182.6H366.4C367.1 182.6 367.6 182.5 368 182.3C368.4 182.1 368.8 181.8 369.1 181.4L380.5 167.8C380.9 167.3 381.3 166.9 381.7 166.7C382.1 166.5 382.7 166.4 383.3 166.4H388.5L375 182.3C374.6 182.8 374.3 183.1 373.9 183.4C373.6 183.7 373.2 184 372.8 184.1C373.3 184.3 373.8 184.6 374.2 184.9C374.6 185.2 375 185.7 375.4 186.2L389.4 204H384.1C383.7 204 383.4 204 383.1 203.9C382.8 203.8 382.6 203.8 382.4 203.7C382.2 203.6 382 203.5 381.9 203.3C381.8 203.1 381.6 203 381.5 202.8L369.7 188.4C369.5 188.2 369.4 188 369.2 187.8C369 187.6 368.8 187.5 368.6 187.4C368.4 187.3 368.1 187.2 367.8 187.2C367.5 187.2 367.2 187.1 366.8 187.1H364.5V204H358.4V166.3H364.5V182.6H364.6Z" fill="white"/>
<path d="M417.3 199.2V204.2H393.8V166.5H417.3V171.5H399.9V182.9H413.8V187.7H399.9V199.4H417.3V199.2Z" fill="white"/>
<path d="M449.9 171.6H438.1V204.2H432V171.6H420.2V166.5H449.9V171.6Z" fill="white"/>
<path d="M461.3 204.2H455.1V166.5H461.3V204.2Z" fill="white"/>
<path d="M501.5 166.5V204.2H498.4C497.9 204.2 497.5 204.1 497.2 204C496.9 203.9 496.6 203.6 496.3 203.2L475.6 176.6C475.7 177.1 475.7 177.6 475.7 178.1C475.7 178.6 475.7 179.1 475.7 179.5V204.3H470.3V166.6H473.5C473.8 166.6 474 166.6 474.2 166.6C474.4 166.6 474.6 166.7 474.7 166.7C474.9 166.8 475 166.9 475.1 167C475.2 167.1 475.4 167.3 475.5 167.5L496.3 194.1C496.2 193.6 496.2 193 496.2 192.5C496.2 192 496.2 191.5 496.2 191V166.4H501.5V166.5Z" fill="white"/>
<path d="M541.4 185.6V200.5C537.6 203.2 533.3 204.6 528.3 204.6C525.2 204.6 522.5 204.1 520 203.2C517.5 202.2 515.4 200.9 513.7 199.2C512 197.5 510.6 195.5 509.7 193.1C508.8 190.7 508.3 188.1 508.3 185.3C508.3 182.5 508.8 179.8 509.7 177.5C510.6 175.1 511.9 173.1 513.6 171.4C515.3 169.7 517.3 168.4 519.7 167.4C522.1 166.5 524.8 166 527.8 166C529.3 166 530.7 166.1 532 166.4C533.3 166.6 534.5 167 535.6 167.4C536.7 167.8 537.7 168.3 538.7 168.9C539.7 169.5 540.5 170.2 541.3 170.9L539.5 173.7C539.2 174.1 538.9 174.4 538.4 174.5C538 174.6 537.5 174.5 537 174.2C536.5 173.9 536 173.6 535.4 173.3C534.8 173 534.2 172.7 533.4 172.4C532.7 172.1 531.8 171.9 530.9 171.7C529.9 171.5 528.8 171.4 527.5 171.4C525.5 171.4 523.7 171.7 522.1 172.4C520.5 173.1 519.1 174 518 175.2C516.9 176.4 516 177.9 515.4 179.6C514.8 181.3 514.5 183.3 514.5 185.4C514.5 187.7 514.8 189.7 515.5 191.4C516.2 193.1 517.1 194.7 518.3 195.9C519.5 197.1 520.9 198.1 522.6 198.7C524.3 199.3 526.2 199.7 528.2 199.7C529.8 199.7 531.1 199.5 532.4 199.2C533.7 198.9 534.8 198.4 536 197.8V190.3H530.7C530.3 190.3 530 190.2 529.8 190C529.6 189.8 529.5 189.5 529.5 189.1V185.6H541.4Z" fill="white"/>
<path d="M591.5 204.2H586.8C586.3 204.2 585.8 204.1 585.5 203.8C585.2 203.5 584.9 203.2 584.7 202.8L581.6 194.5H565.4L562.3 202.8C562.2 203.1 561.9 203.5 561.6 203.8C561.3 204.1 560.8 204.2 560.3 204.2H555.6L570.6 166.5H576.8L591.5 204.2ZM579.9 190L574.7 176.2C574.3 175.1 573.9 173.8 573.4 172.1C573.2 172.9 573 173.7 572.8 174.4C572.6 175.1 572.4 175.7 572.2 176.2L567 190H579.9Z" fill="white"/>
<path d="M643.1 166.5L631.4 204.2H625.9L617 177.1C616.9 176.8 616.8 176.5 616.7 176.1C616.6 175.8 616.5 175.4 616.4 175C616.3 175.4 616.2 175.8 616.1 176.1C616 176.4 615.9 176.8 615.8 177.1L606.9 204.2H601.4L589.7 166.5H594.8C595.3 166.5 595.8 166.6 596.1 166.9C596.4 167.2 596.7 167.5 596.8 167.9L603.9 192.1C604 192.6 604.2 193.2 604.3 193.8C604.4 194.4 604.5 195 604.7 195.7C604.8 195 605 194.4 605.1 193.8C605.2 193.2 605.4 192.6 605.6 192.1L613.7 167.9C613.8 167.6 614.1 167.2 614.4 166.9C614.7 166.6 615.2 166.5 615.7 166.5H617.5C618 166.5 618.5 166.6 618.8 166.9C619.1 167.2 619.4 167.5 619.6 167.9L627.7 192.1C627.9 192.6 628 193.2 628.2 193.7C628.3 194.3 628.5 194.9 628.6 195.5C628.7 194.9 628.8 194.2 629 193.7C629.1 193.1 629.2 192.6 629.4 192.1L636.4 167.9C636.5 167.5 636.7 167.2 637.1 166.9C637.5 166.6 637.9 166.5 638.4 166.5H643.1Z" fill="white"/>
<path d="M677.4 204.2H672.7C672.2 204.2 671.7 204.1 671.4 203.8C671.1 203.5 670.8 203.2 670.6 202.8L667.5 194.5H651.3L648.2 202.8C648.1 203.1 647.8 203.5 647.5 203.8C647.2 204.1 646.7 204.2 646.2 204.2H641.5L656.5 166.5H662.7L677.4 204.2ZM665.8 190L660.6 176.2C660.2 175.1 659.8 173.8 659.3 172.1C659.1 172.9 658.9 173.7 658.7 174.4C658.5 175.1 658.3 175.7 658.1 176.2L652.9 190H665.8Z" fill="white"/>
<path d="M710.5 204.2H705C703.9 204.2 703.1 203.8 702.6 202.9L693.8 190.2C693.5 189.8 693.2 189.4 692.8 189.3C692.5 189.1 691.9 189 691.2 189H687.8V204.2H681.7V166.5H692.8C695.3 166.5 697.4 166.8 699.2 167.3C701 167.8 702.5 168.5 703.6 169.5C704.8 170.4 705.6 171.6 706.2 172.9C706.7 174.2 707 175.7 707 177.3C707 178.6 706.8 179.8 706.4 181C706 182.1 705.4 183.2 704.7 184.1C704 185 703 185.8 702 186.5C700.9 187.2 699.7 187.7 698.3 188.1C699.1 188.6 699.7 189.2 700.2 190L710.5 204.2ZM692.7 184.5C694.1 184.5 695.3 184.3 696.4 184C697.5 183.7 698.3 183.2 699 182.6C699.7 182 700.2 181.3 700.6 180.4C700.9 179.6 701.1 178.6 701.1 177.6C701.1 175.5 700.4 174 699.1 172.9C697.8 171.8 695.7 171.3 692.9 171.3H687.9V184.6H692.7V184.5Z" fill="white"/>
<path d="M748.2 185.3C748.2 188.1 747.7 190.6 746.8 193C745.9 195.3 744.6 197.3 743 199C741.3 200.7 739.4 201.9 737.1 202.9C734.8 203.9 732.2 204.3 729.4 204.3H715.1V166.6H729.4C732.2 166.6 734.8 167.1 737.1 168C739.4 168.9 741.4 170.2 743 171.9C744.7 173.6 745.9 175.5 746.8 177.9C747.7 180 748.2 182.5 748.2 185.3ZM741.9 185.3C741.9 183.1 741.6 181.2 741 179.5C740.4 177.8 739.6 176.3 738.5 175.1C737.4 173.9 736.1 173 734.5 172.4C732.9 171.8 731.2 171.4 729.3 171.4H721.2V199.2H729.3C731.2 199.2 733 198.9 734.5 198.3C736 197.7 737.4 196.8 738.5 195.6C739.6 194.4 740.4 192.9 741 191.2C741.6 189.5 741.9 187.5 741.9 185.3Z" fill="white"/>
<path d="M774.6 172.9C774.4 173.2 774.2 173.4 774 173.6C773.8 173.7 773.5 173.8 773.2 173.8C772.9 173.8 772.5 173.7 772.1 173.4C771.7 173.1 771.2 172.8 770.6 172.5C770 172.2 769.3 171.8 768.5 171.6C767.7 171.3 766.7 171.2 765.6 171.2C764.6 171.2 763.6 171.3 762.8 171.6C762 171.9 761.3 172.2 760.8 172.7C760.3 173.2 759.9 173.7 759.6 174.4C759.3 175 759.2 175.7 759.2 176.5C759.2 177.5 759.5 178.3 760 178.9C760.5 179.5 761.2 180.1 762 180.5C762.8 181 763.8 181.4 764.8 181.7C765.8 182 767 182.4 768.1 182.8C769.2 183.2 770.3 183.6 771.4 184.1C772.5 184.6 773.4 185.2 774.2 186C775 186.8 775.7 187.7 776.2 188.8C776.7 189.9 777 191.2 777 192.8C777 194.5 776.7 196 776.1 197.5C775.5 199 774.7 200.2 773.6 201.3C772.5 202.4 771.2 203.3 769.6 203.9C768 204.5 766.2 204.8 764.1 204.8C762.9 204.8 761.7 204.7 760.6 204.4C759.5 204.2 758.4 203.8 757.3 203.4C756.2 203 755.3 202.5 754.4 201.8C753.5 201.2 752.7 200.5 752 199.8L753.8 196.9C754 196.7 754.2 196.5 754.4 196.3C754.6 196.2 754.9 196.1 755.2 196.1C755.6 196.1 756 196.3 756.5 196.7C757 197.1 757.6 197.5 758.3 197.9C759 198.3 759.8 198.8 760.8 199.1C761.8 199.5 762.9 199.7 764.3 199.7C766.5 199.7 768.2 199.2 769.4 198.1C770.6 197 771.2 195.5 771.2 193.6C771.2 192.5 770.9 191.7 770.4 191C769.9 190.3 769.2 189.8 768.4 189.3C767.6 188.8 766.6 188.5 765.6 188.1C764.5 187.8 763.5 187.4 762.4 187.1C761.3 186.7 760.2 186.3 759.2 185.8C758.1 185.3 757.2 184.7 756.4 183.9C755.6 183.1 754.9 182.2 754.4 181C753.9 179.9 753.6 178.4 753.6 176.7C753.6 175.3 753.9 174 754.4 172.7C754.9 171.4 755.7 170.3 756.7 169.3C757.7 168.3 759 167.5 760.5 166.9C762 166.3 763.7 166 765.6 166C767.8 166 769.8 166.3 771.6 167C773.4 167.7 775 168.7 776.3 169.9L774.6 172.9Z" fill="white"/>
<path d="M104.6 7.40005C108.9 7.40005 112.8 9.80005 114.7 13.7L138.1 61.2001C138.9 62.7001 140.3 63.8 142 64L194.4 71.6C198.7 72.2 202.1 75.2 203.5 79.3C204.8 83.4 203.7 87.8 200.7 90.8L162.8 127.8C161.6 129 161 130.7 161.3 132.4L170.3 184.6C170.9 187.9 170 191.2 167.8 193.7C165.6 196.3 162.5 197.7 159.2 197.7C157.4 197.7 155.6 197.2 154 196.4L107 171.7C106.2 171.3 105.4 171.1 104.6 171.1C103.8 171.1 102.9 171.3 102.2 171.7L55.3 196.3C53.7 197.2 51.9 197.6 50.1 197.6C46.8 197.6 43.6 196.1 41.5 193.6C39.4 191.1 38.5 187.7 39 184.5L48 132.3C48.3 130.6 47.7 128.9 46.5 127.7L8.59998 90.7C5.49998 87.7 4.39998 83.3 5.79998 79.2C7.09998 75.1 10.6 72.2 14.9 71.5L67.2 64C68.9 63.8 70.3 62.7001 71.1 61.2001L94.5 13.7C96.4 9.80005 100.3 7.40005 104.6 7.40005ZM104.6 2.30005C98.3 2.30005 92.7 5.80005 89.9 11.5L66.5 58.9001L14.1 66.5C7.79998 67.4 2.79998 71.7 0.799976 77.7C-1.20002 83.7 0.499976 90.1 4.99998 94.5L42.9 131.5L33.9 183.7C33.1 188.5 34.4 193.3 37.5 197C40.6 200.7 45.2 202.9 50.1 202.9C52.7 202.9 55.4 202.2 57.7 201L104.6 176.4L151.5 201C153.9 202.2 156.5 202.9 159.1 202.9C163.9 202.9 168.5 200.8 171.7 197C174.8 193.3 176.1 188.4 175.3 183.7L166.3 131.5L204.2 94.5C208.7 90.1 210.3 83.7 208.4 77.7C206.5 71.7 201.4 67.4 195.1 66.5L142.7 58.9001L119.3 11.4C116.5 5.80005 110.9 2.30005 104.6 2.30005Z" fill="white"/>
<path d="M104.6 21.6L128.9 70.8001C130.2 73.5001 132.8 75.3 135.7 75.7L190 83.6L150.7 122C148.6 124.1 147.6 127.1 148.1 130L157.4 184.1L108.8 158.6C107.5 157.9 106.1 157.6 104.6 157.6C103.1 157.6 101.7 158 100.4 158.6L51.8999 184L61.1999 129.9C61.6999 127 60.6999 124 58.5999 121.9L19.1999 83.7L73.4999 75.8001C76.3999 75.4001 78.9999 73.5001 80.2999 70.9001L104.6 21.6ZM104.6 14.8C103.2 14.8 101.8 15.5 101.1 17L75.6999 68.5C75.0999 69.6 74.0999 70.4 72.7999 70.6L15.8999 78.9C12.6999 79.4 11.4999 83.3 13.7999 85.5L54.9999 125.6C55.8999 126.5 56.2999 127.8 56.0999 129L46.3999 185.7C45.9999 188.2 47.9999 190.2 50.1999 190.2C50.7999 190.2 51.3999 190.1 51.9999 189.7L102.9 162.9C103.5 162.6 104.1 162.5 104.7 162.5C105.3 162.5 105.9 162.6 106.5 162.9L157.4 189.7C158 190 158.6 190.2 159.2 190.2C161.4 190.2 163.4 188.2 163 185.7L153.3 129C153.1 127.7 153.5 126.5 154.4 125.6L195.6 85.5C197.9 83.3 196.6 79.4 193.5 78.9L136.6 70.6C135.3 70.4 134.3 69.6 133.7 68.5L108.1 17C107.4 15.5 106 14.8 104.6 14.8Z" fill="white"/>
<path d="M104.6 50.0001L121.1 83.5001C122 85.4001 123.9 86.7001 126 87.0001L163 92.4001L136.2 118.5C134.7 120 134 122.1 134.4 124.2L140.7 161L107.6 143.6C106.7 143.1 105.6 142.9 104.6 142.9C103.6 142.9 102.5 143.2 101.6 143.6L68.4999 161L74.7999 124.2C75.1999 122.1 74.4999 120 72.8999 118.5L46.1999 92.4001L83.1999 87.0001C85.2999 86.7001 87.0999 85.4001 88.0999 83.5001L104.6 50.0001ZM104.6 39.9001C104.1 39.9001 103.7 40.1001 103.5 40.6001L83.4999 81.2001C83.2999 81.6001 82.9999 81.8001 82.4999 81.9001L37.6999 88.4001C36.6999 88.6001 36.1999 89.8001 36.9999 90.6001L69.3999 122.2C69.6999 122.5 69.7999 122.9 69.7999 123.3L62.0999 168C61.9999 168.8 62.5999 169.5 63.3999 169.5C63.5999 169.5 63.7999 169.5 63.9999 169.4L104.1 148.3C104.3 148.2 104.5 148.2 104.7 148.2C104.9 148.2 105.1 148.2 105.3 148.3L145.4 169.4C145.6 169.5 145.8 169.5 146 169.5C146.7 169.5 147.4 168.8 147.3 168L139.6 123.4C139.5 123 139.7 122.6 140 122.3L172.4 90.7001C173.2 90.0001 172.7 88.7001 171.7 88.5001L126.9 82.0001C126.5 81.9001 126.1 81.7001 125.9 81.3001L105.9 40.7001C105.5 40.2001 105.1 39.9001 104.6 39.9001Z" fill="white"/>
</g>
<defs>
<clipPath id="clip0_2269_112">
<rect width="776.9" height="204.6" fill="white"/>
</clipPath>
</defs>
</svg>
