<svg width="284" height="56" viewBox="0 0 284 56" fill="none" xmlns="http://www.w3.org/2000/svg">
<path fill-rule="evenodd" clip-rule="evenodd" d="M262.69 0.211775C259.49 1.02325 256.713 3.273 255.269 6.22297C254.106 8.59843 253.705 10.2016 253.563 13.0363C253.224 19.826 256.442 24.6364 262.132 25.8421C264.025 26.2435 265.049 26.2388 266.82 25.8214C268.965 25.3157 270.748 24.263 272.731 22.3303C273.707 21.3796 274.525 20.6015 274.549 20.6015C274.574 20.6015 274.713 20.977 274.858 21.4358C275.445 23.2871 276.838 25.2376 278.01 25.8501C278.898 26.314 280.826 26.25 281.682 25.728C282.868 25.005 283.195 24.1299 283.195 21.6768C283.195 20.4938 283.14 19.4716 283.073 19.405C283.007 19.3385 282.745 19.3385 282.491 19.4048C282.125 19.5005 282.001 19.7606 281.896 20.6482C281.387 24.9379 278.156 24.5382 276.38 19.9662C275.679 18.1635 275.687 14.5816 276.395 11.8125C277.05 9.25615 278.185 5.98489 279.432 3.05739C279.972 1.79089 280.413 0.714636 280.413 0.665463C280.413 0.616289 279.934 0.576016 279.347 0.576016H278.282L276.803 3.19045C275.99 4.6285 275.007 6.30129 274.618 6.90784L273.912 8.01079L273.401 6.75453C272.713 5.06438 271.444 3.19223 270.322 2.21432C268.221 0.383994 265.169 -0.416801 262.69 0.211775ZM263.269 2.2141C260.512 2.95771 258.791 5.2395 258.045 9.14112C257.105 14.0545 258.172 19.3768 260.633 22.0464C262.038 23.5706 263.062 24.0414 264.949 24.0309C268.32 24.0122 270.435 22.2184 271.617 18.3764C272.175 16.5632 272.319 11.8085 271.878 9.74121C271.087 6.02894 268.843 2.9922 266.342 2.2497C265.005 1.85253 264.626 1.84808 263.269 2.2141ZM67.2535 27.4855V44.1596L69.0336 44.1636L70.8136 44.1674V38.9414C70.8136 34.445 70.8614 33.697 71.1556 33.5839C71.3438 33.5119 71.7067 33.6402 71.9624 33.8692C72.526 34.3741 77.2703 39.8163 79.3438 42.3368L80.8423 44.158H83.0594C84.2787 44.158 85.2764 44.1167 85.2764 44.0662C85.2764 44.0154 82.9197 41.2435 80.0391 37.9061L74.8018 31.838L76.3595 30.3632C77.2164 29.5522 79.423 27.6057 81.2631 26.0377C83.1032 24.4697 84.6089 23.1267 84.6089 23.0528C84.6089 22.9791 83.811 22.9315 82.8358 22.9471L81.0626 22.9756L77.2175 26.9435C73.2743 31.0127 71.9459 32.1717 71.2252 32.1717C70.8305 32.1717 70.8136 31.7347 70.8136 21.4915V10.8112H69.0336H67.2535V27.4855ZM180.954 27.4855V44.1596L182.734 44.1636L184.514 44.1674V27.4893V10.8112H182.734H180.954V27.4855ZM212.104 27.4893V44.1674L213.866 44.1636L215.628 44.1598L215.711 36.8864C215.791 29.9513 215.818 29.5537 216.3 28.3388C217.18 26.1174 218.901 25.0516 221.607 25.0516C223.61 25.0516 224.717 25.7073 225.566 27.395L226.233 28.7229L226.302 36.4451L226.371 44.1674L228.15 44.1636L229.93 44.1596L229.859 35.9963C229.791 28.083 229.773 27.7939 229.278 26.5628C228.635 24.9639 227.047 23.4684 225.522 23.0256C224.934 22.855 223.652 22.7197 222.673 22.7253C220.019 22.7402 217.872 23.8505 216.299 26.0226L215.664 26.8983V18.8548V10.8112H213.884H212.104V27.4893ZM8.06723 13.2904C5.2561 13.7548 2.56024 15.6351 1.45861 17.8996C0.912587 19.0217 0.846948 19.4037 0.841831 21.4915C0.83471 24.2574 1.22543 25.3484 2.75448 26.8323C3.82829 27.8745 5.01001 28.5166 8.70092 30.0641C10.0896 30.6464 11.6916 31.4437 12.2608 31.8359C14.5439 33.4093 15.2052 36.5141 13.8395 39.2474C12.6833 41.561 10.9011 42.6642 8.33379 42.6552C5.5556 42.6455 3.42979 41.4212 1.8184 38.9025C1.20273 37.9401 0.778194 37.9791 0.60553 39.0137C0.528989 39.4728 0.328734 40.3459 0.160521 40.9542C-0.208392 42.2879 -0.0379535 42.558 1.70559 43.4024C4.21701 44.6186 7.73637 44.9835 10.3606 44.3C15.0363 43.0822 18.08 39.2558 18.08 34.5957C18.08 30.9239 16.4074 29.0825 11.088 26.8972C5.52912 24.6137 4.19898 23.3389 4.18207 20.2793C4.17473 18.9583 4.27041 18.5453 4.78617 17.6677C7.00299 13.8967 12.809 14.2 14.8748 18.1948C15.061 18.5551 15.3182 18.815 15.4464 18.7722C15.7343 18.6761 16.7781 15.4738 16.6421 15.1036C16.4775 14.6548 14.3354 13.6887 12.769 13.3567C11.1236 13.008 9.88309 12.9905 8.06723 13.2904ZM89.35 13.261C89.0819 13.3689 88.687 13.7252 88.4725 14.0527C87.5175 15.5101 88.5277 17.4864 90.2278 17.4864C91.3348 17.4864 91.8601 17.1962 92.3027 16.3403C93.2677 14.4741 91.337 12.4607 89.35 13.261ZM163.079 13.6344C162.901 13.9786 160.05 20.3178 156.743 27.7216C153.435 35.1255 150.427 41.8533 150.058 42.6726L149.387 44.1623H151.027H152.667L153.376 42.0051C153.766 40.8187 154.747 38.1193 155.557 36.0064L157.029 32.1644L162.699 32.2238L168.37 32.283L169.316 34.508C169.836 35.7318 170.881 38.4047 171.639 40.4478L173.016 44.1627L175.316 44.1592C176.581 44.1572 177.609 44.0875 177.602 44.0043C177.594 43.9213 174.61 36.9444 170.97 28.5004C165.378 15.5288 164.278 13.1369 163.877 13.0781C163.541 13.0292 163.306 13.1932 163.079 13.6344ZM160.292 24.5858C159.051 27.5113 158.036 29.9645 158.036 30.0372C158.036 30.1098 160.176 30.1692 162.793 30.1692H167.551L165.197 24.7178C163.903 21.7195 162.777 19.2664 162.696 19.2664C162.615 19.2664 161.534 21.6601 160.292 24.5858ZM29.261 22.9269C23.5315 24.2314 20.3978 30.3583 22.0853 36.9565C23.3308 41.8266 26.8222 44.4442 32.0978 44.4631C34.501 44.4718 36.5441 43.893 38.6806 42.5981C39.8694 41.8776 39.8854 41.8536 39.8854 40.8025C39.8854 40.2164 39.8236 39.7369 39.7479 39.7369C39.6723 39.7369 39.2515 40.0519 38.8127 40.4371C38.3742 40.8223 37.3596 41.4482 36.5583 41.8278C35.2618 42.4423 34.8813 42.5177 33.099 42.5148C30.6043 42.5104 29.2412 41.9659 27.76 40.3824C26.3665 38.8927 25.8307 37.583 25.6981 35.3424L25.5893 33.5067H33.1825H40.7754L40.7728 32.0048C40.7659 28.0634 38.5179 24.4855 35.2894 23.2777C33.6595 22.6679 31.0624 22.5168 29.261 22.9269ZM52.1472 22.8447C50.4824 23.1716 48.4036 24.2897 47.2408 25.4834C45.3063 27.4697 44.3355 30.1876 44.3355 33.618C44.3355 40.1859 48.3213 44.4219 54.5581 44.4825C57.0537 44.5065 59.9133 43.6728 61.7016 42.3994C62.279 41.9882 62.3584 41.7973 62.3584 40.8194V39.7071L61.3972 40.4947C60.8685 40.9279 59.8423 41.5603 59.1165 41.9003C57.9797 42.4327 57.5192 42.5182 55.7899 42.5182C53.9669 42.5182 53.6451 42.4505 52.2847 41.7808C49.8632 40.5886 48.5451 38.4241 48.2178 35.1019L48.0607 33.5067H55.7658H63.4709L63.4676 32.2273C63.4634 30.5394 62.9327 28.3531 62.2013 27.0092C60.4182 23.733 56.3032 22.0286 52.1472 22.8447ZM104.412 22.9442C102.861 23.3745 101.079 24.5876 100.262 25.7694L99.628 26.6859L99.5635 24.8673L99.4987 23.049H97.7278H95.9567V33.6044V44.1596L97.7205 44.1636L99.4843 44.1674L99.5672 37.0014C99.662 28.8183 99.7766 28.1604 101.402 26.4738C102.403 25.4343 103.431 25.0547 105.253 25.0529C107.462 25.0504 108.782 25.9287 109.571 27.9252C110.036 29.1016 110.067 29.5684 110.15 36.6639L110.237 44.1598L111.997 44.1636L113.757 44.1674L113.753 36.8901C113.749 29.1864 113.592 27.5765 112.669 25.7665C112.106 24.6628 110.702 23.4371 109.591 23.0786C108.199 22.63 105.772 22.5668 104.412 22.9442ZM122.687 22.8269C121.345 23.1138 119.882 23.856 119.083 24.6546C117.911 25.8265 117.47 26.9653 117.362 29.096C117.208 32.1386 118.015 33.8785 120.244 35.3086L121.356 36.0226L120.32 36.6672C118.955 37.5174 118.317 38.8649 118.51 40.4936C118.67 41.8431 119.173 42.5985 120.281 43.149C121.075 43.5437 121.199 43.9645 120.521 43.9645C119.983 43.9645 118.585 44.7673 117.941 45.4459C117.039 46.3967 116.649 47.5459 116.654 49.2418C116.66 51.047 117.13 52.2176 118.329 53.4167C120.64 55.7283 125.293 56.3789 129.474 54.9753C132.387 53.9977 134.055 52.6088 135.182 50.2238C136.455 47.531 136.027 44.3327 134.184 42.7552C132.693 41.4786 131.731 41.2568 126.973 41.091C123.458 40.9687 122.619 40.8752 122.123 40.5508C120.948 39.7803 120.848 38.1397 121.926 37.292C122.353 36.9558 122.834 36.8432 123.855 36.8399C127.268 36.829 130.005 36.0375 131.655 34.5848C133.24 33.1899 133.665 32.2095 133.669 29.9467C133.672 27.7988 133.271 26.7243 131.85 25.0636L131.032 24.1077L133.297 24.2699L135.563 24.4321V23.6293V22.8265L133.727 22.8258C132.717 22.8256 130.039 22.7789 127.775 22.7221C125.511 22.6654 123.221 22.7126 122.687 22.8269ZM197.641 22.8214C195.357 23.2433 193.897 24.1929 192.707 26.0317L191.856 27.3456V25.1973V23.049H190.076H188.296V39.2919V55.5347H190.076H191.856L191.869 47.9139C191.88 41.9196 191.939 40.3855 192.148 40.7261C192.712 41.6475 194.441 43.3579 195.201 43.7453C197.276 44.8044 200.576 44.7437 202.861 43.6047C204.17 42.9523 205.895 41.3389 206.64 40.0706C208.031 37.701 208.71 33.209 208.111 30.3332C207.46 27.2061 205.171 24.2347 202.702 23.3107C201.303 22.7873 199.021 22.5666 197.641 22.8214ZM239.959 22.9302C239.187 23.1055 237.835 23.6358 236.956 24.1084L235.356 24.9679L235.29 26.3447C235.253 27.1019 235.315 27.7216 235.427 27.7216C235.539 27.7216 235.88 27.3447 236.185 26.8841C237.039 25.5936 238.748 24.7699 240.799 24.6608C242.3 24.581 242.605 24.6375 243.7 25.2009C244.722 25.7264 245.025 26.0297 245.536 27.0383C245.978 27.9116 246.147 28.5787 246.147 29.4449C246.147 31.6223 245.65 31.9695 241.429 32.7362C236.48 33.6356 234.817 34.429 233.876 36.3392C233.082 37.9524 233.13 40.3572 233.985 41.8124C235.215 43.9053 237.801 44.9328 240.621 44.4493C242.425 44.14 243.636 43.5793 245.061 42.3942L246.089 41.5398L246.425 42.3956C246.901 43.608 247.722 44.0764 249.364 44.0731C250.979 44.0702 252.155 43.6378 252.155 43.0475C252.155 42.6949 251.983 42.6294 251.056 42.6294C250.42 42.6294 249.88 42.512 249.776 42.3513C249.677 42.1984 249.546 38.769 249.485 34.7305L249.374 27.3879L248.706 26.0528C247.971 24.583 246.69 23.4506 245.307 23.0481C243.912 22.642 241.465 22.588 239.959 22.9302ZM88.614 33.6044V44.1596L90.394 44.1636L92.1741 44.1674V33.6082V23.049H90.394H88.614V33.6044ZM30.8353 24.1927C28.4289 24.6132 26.8182 26.4006 25.9508 29.6129C25.7855 30.2248 25.6491 30.9506 25.6478 31.2261L25.6451 31.7267H31.531H37.417L37.2966 30.5585C37.0082 27.7612 36.0644 25.6993 34.681 24.8442C33.7252 24.2534 32.0815 23.9751 30.8353 24.1927ZM53.557 24.1642C52.2213 24.3522 50.7143 25.3355 49.9168 26.5392C49.1625 27.6782 48.3406 30.0472 48.3406 31.0825V31.7267H54.158H59.9754L59.8495 30.2246C59.6345 27.6613 58.6789 25.7124 57.1431 24.7062C56.4741 24.2679 54.7129 24.0016 53.557 24.1642ZM123.356 24.4194C121.444 25.3657 120.528 27.4079 120.698 30.3436C120.777 31.7089 120.934 32.3275 121.438 33.2537C123.414 36.8839 128.571 36.3597 129.888 32.3947C130.59 30.2842 130.313 27.2575 129.275 25.697C128.169 24.0327 125.362 23.4266 123.356 24.4194ZM196.699 24.3831C194.326 25.0976 192.702 27.5356 192.091 31.3015C191.414 35.4723 192.279 39.3275 194.301 41.1545C196.037 42.7224 199.075 43.0435 201.077 41.8705C202.871 40.8187 203.874 38.7265 204.329 35.0867C204.987 29.8112 203.275 25.3962 200.219 24.4886C199.025 24.1339 197.662 24.093 196.699 24.3831ZM243.43 33.6494C242.12 33.9159 240.701 34.2483 240.277 34.3881C239.17 34.7534 237.766 35.8335 237.349 36.6409C236.898 37.5114 236.886 39.7137 237.326 40.5597C238.73 43.2591 242.522 43.3139 245.102 40.6721L245.937 39.817L245.875 36.4907L245.814 33.1645L243.43 33.6494ZM123.946 43.9694C120.699 44.4787 119.102 46.4303 119.382 49.5467C119.564 51.5808 120.549 52.9657 122.435 53.8386C123.238 54.2104 123.877 54.3025 125.661 54.3034C127.646 54.3045 128.037 54.2351 129.291 53.6592C131.553 52.6199 132.672 50.9478 132.669 48.6113C132.666 46.4009 131.614 44.7593 129.873 44.2462C128.639 43.8826 125.449 43.7337 123.946 43.9694Z" fill="#ECECEC"/>
</svg>
