<svg width="285" height="58" viewBox="0 0 285 58" fill="none" xmlns="http://www.w3.org/2000/svg">
<path fill-rule="evenodd" clip-rule="evenodd" d="M222.782 28.8791V57.7582H226.015H229.249V32.1127V6.46714H254.894H280.54V3.23357V0H251.661H222.782V28.8791ZM0 28.7676V43.0399H2.56455H5.12911V37.2418V31.4437H7.66668H10.2042L12.8515 37.2331L15.4988 43.0225L18.4543 43.0312L21.41 43.0399L18.2871 36.7973C16.5697 33.364 15.1643 30.5113 15.1643 30.458C15.1643 30.4049 15.6913 30.1168 16.3351 29.8182C17.7463 29.1632 18.9924 27.9481 19.6764 26.5599C20.113 25.6741 20.1819 25.1841 20.1819 22.9695C20.1819 20.673 20.1213 20.2756 19.6019 19.1681C18.7848 17.4263 17.796 16.3937 16.2044 15.621C14.2435 14.669 12.6943 14.4989 5.96538 14.4971L0 14.4953V28.7676ZM27.2066 28.7676V43.0399H36.7958H46.385V40.9214V38.8028H39.4718H32.5587V34.5657V30.3286H37.4648H42.3709V28.2101V26.0915H37.4648H32.5587V22.5235V18.9554H39.2488H45.939V16.7254V14.4953H36.5728H27.2066V28.7676ZM53.2981 28.7676V43.0399H55.9742H58.6502V36.6843V30.3286H63.4448H68.2394V28.2101V26.0915H63.4448H58.6502V22.5235V18.9554H65.0059H71.3615V16.7254V14.4953H62.3298H53.2981V28.7676ZM77.5314 14.644C77.4495 14.7257 77.3826 21.1482 77.3826 28.9163V43.0399H80.0587H82.7347V28.7676V14.4953H80.2074C78.8172 14.4953 77.613 14.5622 77.5314 14.644ZM91.4319 28.7607V43.0399H93.8827H96.3336L96.3915 32.7382L96.4495 22.4363L102.359 32.7366L108.269 43.037L110.891 43.0386L113.513 43.0399L113.455 28.8234L113.398 14.6068H110.945H108.492L108.38 24.4652L108.269 34.3238L102.574 24.4652L96.8793 14.6068L94.1555 14.5441L91.4319 14.4815V28.7607ZM121.984 28.7676V43.0399H124.548H127.113V28.7676V14.4953H124.548H121.984V28.7676ZM133.357 16.7254V18.9554H137.148H140.939V30.9977V43.0399H143.615H146.291V30.9977V18.9554H149.971H153.65V16.7254V14.4953H143.504H133.357V16.7254ZM159.894 28.7676V43.0399H162.459H165.023V28.7676V14.4953H162.459H159.894V28.7676ZM171.046 14.7741C171.047 14.9275 172.983 21.3248 175.348 28.9906L179.649 42.9284L182.667 42.9902L185.686 43.0519L189.998 29.0524C192.37 21.3527 194.355 14.9275 194.409 14.7741C194.484 14.5615 193.896 14.4953 191.93 14.4953H189.352L188.898 16.0006C188.648 16.8286 187.173 21.951 185.619 27.3839C184.066 32.8169 182.727 37.1822 182.643 37.0846C182.56 36.9871 181.107 32.0904 179.414 26.2031C177.721 20.3157 176.252 15.2729 176.149 14.9971C175.97 14.5185 175.849 14.4953 173.503 14.4953C171.684 14.4953 171.045 14.5678 171.046 14.7741ZM5.12911 22.9967V27.2608L8.53707 27.1693C11.6085 27.0868 12.0534 27.0235 13.0413 26.5289C14.4264 25.8353 14.9141 25.1603 15.0876 23.6963C15.384 21.1937 14.2627 19.4525 12.0489 18.9777C11.4198 18.8428 9.6057 18.7324 8.01724 18.7324H5.12911V22.9967ZM259.912 41.7019L275.967 57.7582H280.483C282.968 57.7582 285 57.6833 285 57.5916C285 57.5002 279.305 51.73 272.345 44.7689L259.691 32.1127H270.115H280.54V28.8791V25.6455H262.198H243.857L259.912 41.7019Z" fill="#ECECEC"/>
</svg>
